<svg xmlns="http://www.w3.org/2000/svg" viewBox="0 0 405.05 119.66"><defs><style>.cls-1{fill:#fff;}</style></defs><g id="Camada_2" data-name="Camada 2"><g id="Camada_2-2" data-name="Camada 2"><path class="cls-1" d="M69.43,33.38c-3.27,23.16-11.35,27.7-32.26,27.7a126.62,126.62,0,0,1-15.32-1,1.74,1.74,0,0,0-2.13,1.71L15.93,88.77c-.43,3.1-2.25,4.65-5.24,4.65h-6c-3.39,0-5.09-2-4.65-5.37l11-77.9c.44-3,1.71-4.54,3.86-4.68C23.26,4.71,30,4.6,42.69,4.6,64.44,4.6,72.39,12.36,69.43,33.38ZM42.17,17.65H27.75a2,2,0,0,0-2.11,1.84l-3.72,26.4A1.71,1.71,0,0,0,23.78,48H36.41c12.09,0,15.45-3.2,17.29-15.81C55.48,20.38,52.14,17.65,42.17,17.65Z"/><path class="cls-1" d="M63.28,61.31C67.3,33,77.89,29.44,94.83,29.44a155.22,155.22,0,0,1,27.22,2.61c2.71.51,4.54,2.22,4.07,5.68l-7.25,51c-.43,3.1-2.25,4.65-5.24,4.65h-2.5c-3.24,0-5-1.82-4.86-5.07V85.92c.11-1.62-.73-2.25-1.91-1.2a34.36,34.36,0,0,1-24,10.22C65.44,95,59.67,86.53,63.28,61.31Zm41.79,9.45a4,4,0,0,0,1.12-2.42l3.58-24.45a1.82,1.82,0,0,0-1.85-2.22H98.69c-14.37,0-17.35,2.06-19.9,20.31-2.44,17.42-1.06,20.08,5.64,20C92,81.87,97.87,77.71,105.07,70.76Z"/><path class="cls-1" d="M124.83,118c-3-.68-4.07-2.74-3.69-5.71l.13-.88c.38-2.89,2.15-4.4,5.06-4.29,3.49,0,7.54.11,14.33.11,11.08,0,21.26-2.77,23.79-13,.7-3.1,2.16-6,3.34-9.48.6-1.46-.46-1.93-1.52-.88a34.89,34.89,0,0,1-25.06,10.86c-13.25.12-20.44-7.43-16.7-33.46,4.15-29.12,15-31.87,29.84-31.87a182.79,182.79,0,0,1,29,2.63c3.12.56,4.4,2.67,4,5.79L180,90.24c-2.23,19.19-14.13,29.42-38.32,29.42A85.79,85.79,0,0,1,124.83,118Zm41.38-47.29a4.13,4.13,0,0,0,1.29-2.33L171.07,44a1.76,1.76,0,0,0-1.91-2.18c-4.21-.11-7.53-.11-9.53-.11-14.22,0-16.94,2.29-19.49,20.31-2.51,17.25-1,20.11,5.56,20C153,81.89,158.93,78.05,166.21,70.73Z"/><path class="cls-1" d="M238,31.11h5.27c3.39,0,5.1,2,4.65,5.24l-7.25,52.53c-.42,3-2.24,4.54-5.35,4.54h-2.22c-3.23,0-4.94-1.81-5-5l.23-4.09c0-1.62-1-2.11-2.37-1-8.71,7.93-16.45,11.79-25.11,11.79-11.78,0-16.89-6.83-15.35-17.53l5.8-41.91c.41-3,2.23-4.54,5.35-4.54h5.43c3.39,0,5.08,2,4.65,5.24L201.4,73.48c-.93,6.32.47,8.5,5.34,8.5,6.39,0,11.61-3.66,20.31-11.1a3,3,0,0,0,1.15-2.24l4.52-32.88C233.15,32.66,234.86,31.11,238,31.11Z"/><path class="cls-1" d="M306.17,50.1c-1.87,12.53-9.47,17-25.08,18.06l-17.72,1.55c-1.32.13-2,.83-1.83,2.15.79,8.73,6,10.45,13.9,10.45,5.23,0,12.05-.37,18.36-1,3.24-.27,5.08,1.15,5.38,4.4l.13.77c.29,3-.85,5-3.78,5.82-6.93,2-15.74,2.61-22.15,2.61-22.69,0-30.26-11.41-27.33-34.34,3.12-24.22,12.17-31.16,35.22-31.16C303.05,29.44,307.8,37.7,306.17,50.1Zm-26.85-8.47c-10.4,0-14.23,2.74-16.54,15.39-.29,1.47.51,2.28,1.85,2.14l15.42-1.37c6.86-.62,10.11-2.34,10.95-9C291.7,41.66,288.39,41.62,279.32,41.63Z"/><path class="cls-1" d="M346.59,11l-9,63.38c-1.88,13.41-9.12,20.38-20.19,20.38a59.15,59.15,0,0,1-9.43-.93c-3.12-.7-4.35-3-3.52-6.09L305,85.8c.83-2.84,2.4-4.25,5.16-4.25h1.65c5.94,0,9.29-3,10-8.15l8.92-63.1c.41-3,2.14-4.54,5.24-4.54H342C345.33,5.76,347,7.61,346.59,11Z"/><path class="cls-1" d="M342.13,61.31c4-28.36,14.61-31.87,31.55-31.87a155,155,0,0,1,27.22,2.61c2.71.51,4.54,2.22,4.07,5.68l-7.25,51c-.43,3.1-2.25,4.65-5.24,4.65H390c-3.24,0-5-1.82-4.86-5.07V85.92c.11-1.62-.73-2.25-1.9-1.2a34.4,34.4,0,0,1-24,10.22C344.29,95,338.52,86.53,342.13,61.31Zm41.79,9.45A4,4,0,0,0,385,68.34l3.58-24.45a1.82,1.82,0,0,0-1.85-2.22h-9.23c-14.36,0-17.35,2.06-19.89,20.31-2.44,17.42-1.06,20.08,5.64,20C370.87,81.87,376.73,77.71,383.92,70.76ZM397.51,1.94l2.83,5c1.23,2.16.62,3.85-1.54,4.92l-22.05,11a3.46,3.46,0,0,1-4.92-1.5l-.49-.88c-1.24-2-.92-3.71.93-5.08L392.45.85C394.46-.56,396.3-.22,397.51,1.94Z"/></g></g></svg>