<svg xmlns="http://www.w3.org/2000/svg" viewBox="0 0 456.19 125.58"><defs><style>.cls-1{fill:#00c07f ;}.cls-2{fill:#3f4a4a;}</style></defs><title>Ativo 1</title><g id="Camada_2" data-name="Camada 2"><g id="Camada_1-2" data-name="Camada 1"><path class="cls-1" d="M290.78,92.91c6.35,0,11.23,5.57,11.23,12.75s-4.79,12.75-11.23,12.75-11.22-5.57-11.22-12.75S284.37,92.91,290.78,92.91Zm0,21.53c4.31,0,7.41-3.79,7.41-8.78s-3.1-8.78-7.41-8.78-7.43,3.82-7.43,8.78S286.48,114.44,290.78,114.44Z"/><path class="cls-1" d="M319.82,118h-3.37l-.06-1.78a5.79,5.79,0,0,1,.06-1.19h-.06a5.67,5.67,0,0,1-5.08,3.42c-3.95,0-7-3.56-7-9s3.07-9,6.93-9a5.71,5.71,0,0,1,5,2.8h.06a8.46,8.46,0,0,1-.09-1.4V93.35h3.67Zm-12-8.54c0,3.17,1.68,5.43,4.12,5.43,2,0,4.15-1.74,4.15-5.43s-2.13-5.44-4.15-5.44C309.47,104,307.79,106.2,307.79,109.42Z"/><path class="cls-1" d="M339.24,109.42c0,5.16-3.31,9-7.89,9s-7.89-3.83-7.89-9,3.35-9,7.89-9S339.24,104.26,339.24,109.42Zm-3.5,0c0-3.22-1.86-5.44-4.39-5.44S327,106.2,327,109.42s1.89,5.43,4.39,5.43S335.74,112.63,335.74,109.42Z"/><path class="cls-1" d="M346.25,100.87l.09,2.19a9.32,9.32,0,0,1-.12,1.23h.06a6.18,6.18,0,0,1,5.45-3.86c3.55,0,5.2,2.43,5.2,6.83V118h-3.67V108c0-2-.42-3.76-2.47-3.76-2.5,0-4.27,2.26-4.27,5.27V118h-3.67V100.87Z"/><path class="cls-1" d="M361.63,100.87V95.75h3.55v5.12h4.27v3.32h-4.27V112c0,2.12,1,2.84,2.07,2.84a6.37,6.37,0,0,0,2.71-.72v3.49a7.47,7.47,0,0,1-3.61.79c-2.29,0-4.57-1.27-4.75-5,0-.55,0-1.13,0-1.71v-7.55h-2.29v-3.32Z"/><path class="cls-1" d="M387.48,109.42c0,5.16-3.31,9-7.89,9s-7.88-3.83-7.88-9,3.34-9,7.88-9S387.48,104.26,387.48,109.42Zm-3.49,0c0-3.22-1.87-5.44-4.4-5.44s-4.39,2.22-4.39,5.44,1.9,5.43,4.39,5.43S384,112.63,384,109.42Z"/><path class="cls-1" d="M390.76,93.35h3.67v19.08c0,1.7.54,2.35,1.63,2.35a4,4,0,0,0,1.41-.27V118a6.71,6.71,0,0,1-2.44.41c-2.41,0-4.27-1.41-4.27-5.1Z"/><path class="cls-1" d="M415.05,109.42c0,5.16-3.31,9-7.89,9s-7.89-3.83-7.89-9,3.35-9,7.89-9S415.05,104.26,415.05,109.42Zm-3.5,0c0-3.22-1.86-5.44-4.39-5.44s-4.39,2.22-4.39,5.44,1.89,5.43,4.39,5.43S411.55,112.63,411.55,109.42Z"/><path class="cls-1" d="M425.73,115.16c3.94.51,6,1.88,6,5,0,3.46-3.07,5.47-7.56,5.47-4.12,0-7.07-1.54-7.07-4.54,0-2,1.75-3.59,4-4.1a2.33,2.33,0,0,1-2.22-2.26,2.91,2.91,0,0,1,2.22-2.56,5.86,5.86,0,0,1-3.55-5.54,6,6,0,0,1,6.32-6.15,6.7,6.7,0,0,1,2.5.44h5.54v3h-1.93a1.52,1.52,0,0,1-.84-.14,4.5,4.5,0,0,1,1,2.84,5.82,5.82,0,0,1-5.35,6c-1.33.14-2.35.68-2.35,1.27C422.39,114.58,423.41,114.85,425.73,115.16Zm2.35,5.26c0-1.43-1.12-2.42-4-2.42-2,0-3.43,1.12-3.43,2.49,0,1.57,1.51,2.36,3.61,2.36C426.54,122.85,428.08,121.89,428.08,120.42Zm-1.27-13.74a3,3,0,1,0-5.93,0,3,3,0,1,0,5.93,0Z"/><path class="cls-1" d="M436.59,93.59a2.35,2.35,0,0,1,0,4.69,2.36,2.36,0,0,1,0-4.69Zm1.84,7.28V118h-3.67V100.87Z"/><path class="cls-1" d="M443,101.66a11.38,11.38,0,0,1,5.42-1.23c4.46,0,6.65,2.43,6.65,6.7V118h-3.34l-.06-1.78a6.86,6.86,0,0,1,.06-1.3h-.06a5.63,5.63,0,0,1-4.93,3.53c-2.68,0-4.79-1.82-4.79-5.1,0-4.2,3.64-6.25,9.48-5.33v-.65c0-2.49-1.38-3.35-3.58-3.35a9.11,9.11,0,0,0-4.85,1.44Zm8.34,8.78c-4.12-.75-5.87.58-5.87,2.53a2,2,0,0,0,2.08,2.19C449.71,115.16,451.34,112.84,451.34,110.44Z"/><path class="cls-2" d="M156.18,84.71H114.76l23.85-38.82H116.69V36.43h39.49L132.33,75.25h23.85Z"/><path class="cls-2" d="M157.54,38.65c2.7-1.45,9.17-3.48,17.38-3.48,14.29,0,21.34,6.86,21.34,18.93V84.71H185.54l-.2-5a17.08,17.08,0,0,1,.2-3.67h-.2A17.91,17.91,0,0,1,169.51,86c-8.59,0-15.35-5.11-15.35-14.38,0-11.88,11.68-17.67,30.41-15.07V54.68c0-7-4.44-9.46-11.49-9.46a31.92,31.92,0,0,0-15.54,4.05Zm26.74,24.82c-13.23-2.13-18.83,1.64-18.83,7.14,0,3.67,2.61,6.18,6.67,6.18C179.07,76.79,184.28,70.22,184.28,63.47Z"/><path class="cls-2" d="M200.5,36.43h10.82l.19,4.54a26.8,26.8,0,0,1-.19,3.38h.19c2.32-4.83,8.89-9.18,16.32-9.18,12.65,0,22.5,10,22.5,25.4,0,15.55-9.85,25.39-22.21,25.39-7.43,0-13.42-4-15.93-8.4H212a21.09,21.09,0,0,1,.29,4V106H200.5Zm38.63,24.14c0-9-5.41-15.35-13.23-15.35-6.47,0-13.33,4.92-13.33,15.35s6.86,15.35,13.33,15.35C233.72,75.92,239.13,69.65,239.13,60.57Z"/><path class="cls-2" d="M252.36,36.43h10.81l.19,4.54a26.8,26.8,0,0,1-.19,3.38h.19c2.32-4.83,8.89-9.18,16.32-9.18,12.65,0,22.5,10,22.5,25.4C302.18,76.12,292.33,86,280,86c-7.43,0-13.42-4-15.93-8.4h-.19a21.09,21.09,0,0,1,.29,4V106H252.36ZM291,60.57c0-9-5.41-15.35-13.23-15.35-6.47,0-13.32,4.92-13.32,15.35s6.85,15.35,13.32,15.35C285.57,75.92,291,69.65,291,60.57Z"/><path class="cls-2" d="M303.24,38.65c2.71-1.45,9.18-3.48,17.38-3.48C334.91,35.17,342,42,342,54.1V84.71H331.25l-.2-5a17.08,17.08,0,0,1,.2-3.67h-.2c-.87,2.12-6,9.94-15.83,9.94-8.6,0-15.36-5.11-15.36-14.38,0-11.88,11.69-17.67,30.42-15.07V54.68c0-7-4.44-9.46-11.49-9.46a32,32,0,0,0-15.55,4.05ZM330,63.47c-13.23-2.13-18.83,1.64-18.83,7.14,0,3.67,2.61,6.18,6.66,6.18C324.78,76.79,330,70.22,330,63.47Z"/><path class="cls-2" d="M345.63,36.43h10.82c.09,1.93.19,3.86.19,5.7,0,1.64-.1,3,0,3.38,3-5.89,8-10.34,14.68-10.34a13.83,13.83,0,0,1,3,.29v11.4a15.29,15.29,0,0,0-2.9-.39c-8.3,0-14,8.4-14,17.48V84.71H345.63Z"/><path class="cls-2" d="M421,60.57C421,75.15,410.42,86,395.75,86s-25.3-10.81-25.3-25.39,10.71-25.4,25.3-25.4S421,46,421,60.57Zm-11.2,0c0-9.08-6-15.35-14.09-15.35s-14.1,6.27-14.1,15.35,6.08,15.35,14.1,15.35S409.84,69.65,409.84,60.57Z"/><path class="cls-2" d="M421.91,15.19h11.78V69.07c0,4.82,1.74,6.66,5.22,6.66a14.41,14.41,0,0,0,4.54-.77v9.85A24,24,0,0,1,435.63,86c-7.73,0-13.72-4-13.72-14.38Z"/><path class="cls-2" d="M449.34,15.86c4.05,0,6.85,2.61,6.85,6.67s-2.8,6.56-6.85,6.56-6.86-2.61-6.86-6.56S445.18,15.86,449.34,15.86Zm5.89,20.57V84.71H443.45V36.43Z"/></g><g id="Camada_2-2" data-name="Camada 2"><path class="cls-1" d="M.4,18.86S3.92-1.39,23.14.08c0,0,21.19-1.64,25.15,10.72a3.55,3.55,0,0,1,0,2c-1.65,3.69-8,6-17,6,0,0,13.06,8.27,35.74-3.36,0,0,22.73-12.29,30,2.19a21.25,21.25,0,0,0,1,1.88C100.44,23.4,109.75,43.26,85,91.5c0,0-14.29,36.27-31.55,17,0,0-6.4-11.38-9.36-19.34,0,0-11-21.77-29.2-30.88a21.39,21.39,0,0,1-8-6.84C3,45.81-1.36,35.6.4,18.86Z"/><path class="cls-1" d="M11.18,63.84s4.19,41.41,20.7,41.65c0,0,9-2.28,3.94-18.39a7.92,7.92,0,0,0-1.41-2.64C31.1,80.42,19.59,66.91,11.18,63.84Z"/></g></g></svg>