<?xml version="1.0" encoding="utf-8"?>
<!-- Generator: Adobe Illustrator 26.0.1, SVG Export Plug-In . SVG Version: 6.00 Build 0)  -->
<svg version="1.1" id="Layer_1" xmlns="http://www.w3.org/2000/svg" xmlns:xlink="http://www.w3.org/1999/xlink" x="0px" y="0px"
	 viewBox="0 0 443.1 344.5" style="enable-background:new 0 0 443.1 344.5;" xml:space="preserve">
<style type="text/css">
	.st0{fill:none;}
	.st1{fill:none;stroke:#FFFFFF;stroke-miterlimit:10;}
	.st2{opacity:0.38;fill:#EAEDFA;}
	.st3{opacity:0.38;fill:#EAEDFA;enable-background:new    ;}
	.st4{fill:#EAEDFA;}
	.st5{fill:#323644;}
	.st6{fill:none;stroke:#6C8CD6;stroke-miterlimit:10;}
	.st7{fill:none;stroke:#6C8CD6;stroke-miterlimit:10;stroke-dasharray:3.39,3.39;}
	.st8{fill:none;stroke:#6C8CD6;stroke-miterlimit:10;stroke-dasharray:5.22,5.22;}
	.st9{fill:none;stroke:#6C8CD6;stroke-miterlimit:10;stroke-dasharray:5.05,5.05;}
	.st10{fill:none;stroke:#6C8CD6;stroke-miterlimit:10;stroke-dasharray:4.49,4.49;}
	.st11{fill:none;stroke:#6C8CD6;stroke-miterlimit:10;stroke-dasharray:5;}
	.st12{fill:none;stroke:#6C8CD6;stroke-miterlimit:10;stroke-dasharray:4.64,4.64;}
	.st13{fill:#FFFFFF;}
	.st14{opacity:0.41;fill:#D8D8D8;enable-background:new    ;}
	.st15{fill:#FCE0E3;}
	.st16{opacity:0.49;}
	.st17{opacity:0.49;fill:#FCE0E3;enable-background:new    ;}
	.st18{fill:#6C8CD6;}
	.st19{opacity:0.48;fill:#4C6393;enable-background:new    ;}
	.st20{fill:url(#SVGID_1_);}
	.st21{fill:none;stroke:#EAEDFA;stroke-miterlimit:10;stroke-dasharray:4.97,4.97;}
	.st22{fill:none;stroke:#323644;stroke-miterlimit:10;}
	.st23{fill:#7DB5D2;}
	.st24{fill:#F8B58E;}
	.st25{fill:#5F8B99;}
	.st26{fill:#EACBBB;}
	.st27{fill:#47333C;}
	.st28{opacity:0.64;fill:#EACBBB;enable-background:new    ;}
	.st29{opacity:0.64;fill:#D3B9AE;enable-background:new    ;}
	.st30{fill:#626977;}
	.st31{fill:#AAACB2;}
	.st32{fill:url(#SVGID_00000067931109439182900970000014217001941748623803_);}
	.st33{fill:url(#SVGID_00000119104130294328942790000017299034135382499977_);}
	.st34{opacity:0.64;fill:#F8B58E;enable-background:new    ;}
	.st35{fill:#D8DDEA;}
	.st36{fill:url(#SVGID_00000148662526078791259960000017585585508598147988_);}
	.st37{fill:#F8B400;}
</style>
<pattern  y="344.5" width="28" height="15.5" patternUnits="userSpaceOnUse" id="SVGID_0000012632412737045809015" viewBox="4.8 -20.3 28 15.5" style="overflow:visible;">
	<g>
		<rect x="4.8" y="-20.3" class="st0" width="28" height="15.5"/>
		<g>
			<rect x="4.8" y="-20.3" class="st0" width="28" height="15.5"/>
			<rect x="4.8" y="-20.3" class="st0" width="28" height="15.5"/>
			<path class="st1" d="M37.1-4.8c0,2.4-1.9,4.3-4.3,4.3s-4.3-1.9-4.3-4.3s1.9-4.3,4.3-4.3l0,0C35.2-9.1,37.1-7.2,37.1-4.8z"/>
			<circle class="st1" cx="4.8" cy="-4.8" r="4.3"/>
			<path class="st1" d="M37.1-20.3c0,2.4-1.9,4.3-4.3,4.3s-4.3-1.9-4.3-4.3l0,0c0-2.4,1.9-4.3,4.3-4.3S37.1-22.7,37.1-20.3z"/>
			<path class="st1" d="M23.1-12.5c0,2.4-1.9,4.3-4.3,4.3s-4.3-1.9-4.3-4.3s1.9-4.3,4.3-4.3l0,0C21.2-16.8,23.1-14.9,23.1-12.5z"/>
			<path class="st1" d="M9.1-20.3c0,2.4-1.9,4.3-4.3,4.3l0,0c-2.4,0-4.3-1.9-4.3-4.3l0,0c0-2.4,1.9-4.3,4.3-4.3l0,0
				C7.2-24.6,9.1-22.7,9.1-20.3L9.1-20.3z"/>
		</g>
	</g>
</pattern>
<pattern  y="344.5" width="28" height="15.5" patternUnits="userSpaceOnUse" id="SVGID_0000013423832053906843223" viewBox="4.8 -20.3 28 15.5" style="overflow:visible;">
	<g>
		<rect x="4.8" y="-20.3" class="st0" width="28" height="15.5"/>
		<g>
			<rect x="4.8" y="-20.3" class="st0" width="28" height="15.5"/>
			<rect x="4.8" y="-20.3" class="st0" width="28" height="15.5"/>
			<path class="st1" d="M37.1-4.8c0,2.4-1.9,4.3-4.3,4.3s-4.3-1.9-4.3-4.3s1.9-4.3,4.3-4.3l0,0C35.2-9.1,37.1-7.2,37.1-4.8z"/>
			<circle class="st1" cx="4.8" cy="-4.8" r="4.3"/>
			<path class="st1" d="M37.1-20.3c0,2.4-1.9,4.3-4.3,4.3s-4.3-1.9-4.3-4.3l0,0c0-2.4,1.9-4.3,4.3-4.3S37.1-22.7,37.1-20.3z"/>
			<path class="st1" d="M23.1-12.5c0,2.4-1.9,4.3-4.3,4.3s-4.3-1.9-4.3-4.3s1.9-4.3,4.3-4.3l0,0C21.2-16.8,23.1-14.9,23.1-12.5z"/>
			<path class="st1" d="M9.1-20.3c0,2.4-1.9,4.3-4.3,4.3l0,0c-2.4,0-4.3-1.9-4.3-4.3l0,0c0-2.4,1.9-4.3,4.3-4.3l0,0
				C7.2-24.6,9.1-22.7,9.1-20.3L9.1-20.3z"/>
		</g>
	</g>
</pattern>
<pattern  y="344.5" width="28" height="15.5" patternUnits="userSpaceOnUse" id="SVGID_0000016879591961344620410" viewBox="4.8 -20.3 28 15.5" style="overflow:visible;">
	<g>
		<rect x="4.8" y="-20.3" class="st0" width="28" height="15.5"/>
		<g>
			<rect x="4.8" y="-20.3" class="st0" width="28" height="15.5"/>
			<rect x="4.8" y="-20.3" class="st0" width="28" height="15.5"/>
			<path class="st1" d="M37.1-4.8c0,2.4-1.9,4.3-4.3,4.3s-4.3-1.9-4.3-4.3s1.9-4.3,4.3-4.3l0,0C35.2-9.1,37.1-7.2,37.1-4.8z"/>
			<circle class="st1" cx="4.8" cy="-4.8" r="4.3"/>
			<path class="st1" d="M37.1-20.3c0,2.4-1.9,4.3-4.3,4.3s-4.3-1.9-4.3-4.3l0,0c0-2.4,1.9-4.3,4.3-4.3S37.1-22.7,37.1-20.3z"/>
			<path class="st1" d="M23.1-12.5c0,2.4-1.9,4.3-4.3,4.3s-4.3-1.9-4.3-4.3s1.9-4.3,4.3-4.3l0,0C21.2-16.8,23.1-14.9,23.1-12.5z"/>
			<path class="st1" d="M9.1-20.3c0,2.4-1.9,4.3-4.3,4.3l0,0c-2.4,0-4.3-1.9-4.3-4.3l0,0c0-2.4,1.9-4.3,4.3-4.3l0,0
				C7.2-24.6,9.1-22.7,9.1-20.3L9.1-20.3z"/>
		</g>
	</g>
</pattern>
<g>
	<g id="Layer_2_00000048483852598940443090000003363748635970787746_">
		<g id="OBJECTS">
			<path class="st2" d="M124.5,233.6c0.9-0.1,1.8-0.1,2.8-0.2c43.4-3.4,80.7-37.4,91.7-79c11.5-43.3-11.6-85.3-47.3-109.4
				c-39.7-26.8-98.3-35-138-3.7c-38.1,30.2-42.3,87-20.4,128.1l0.7,1.2C35.2,209.2,80.2,235.8,124.5,233.6z"/>
			<path class="st3" d="M350.9,263.9h-2.2c-35.1,0.3-67.4-24.5-79.1-57.1c-12.2-34,3.4-69.3,30.5-91.1
				c30.1-24.2,76.6-34.9,110.6-12.4c32.7,21.6,40,67,25.2,101.5l-0.5,1C420.9,238.2,386.7,262.6,350.9,263.9z"/>
			<path class="st4" d="M334.1,47.2h59.1c3.1,0,5.6,2.5,5.6,5.7v37.4c0,3.1-2.5,5.7-5.6,5.7h-59.1c-3.1,0-5.6-2.5-5.6-5.7V52.8
				C328.5,49.7,331,47.2,334.1,47.2z"/>
			<path class="st5" d="M354.5,65.1c2.6-0.1,5,1.6,5.6,4.2H357c-0.4-1-1.4-1.6-2.5-1.5c-1.8,0-3,1.3-3,3.4s1.2,3.4,3,3.4
				c1.1,0,2-0.6,2.5-1.5h3.2c-0.6,2.5-3,4.3-5.6,4.1c-3.3,0-6-2.7-6-6C348.5,67.8,351.2,65.1,354.5,65.1L354.5,65.1z"/>
			<path class="st5" d="M366.2,77.2c-2.5,0-4.5-1.3-4.6-3.7h3.1c0,0.8,0.6,1.4,1.4,1.4h0.1c0.8,0,1.4-0.4,1.4-1.1
				c0-2.2-5.9-1-5.9-5.2c0-2.2,1.8-3.5,4.3-3.5s4.3,1.3,4.4,3.5h-3.1c0-0.7-0.6-1.3-1.3-1.2l0,0c-0.5-0.1-1.1,0.2-1.2,0.8
				c0,0.1,0,0.2,0,0.3c0,2.1,5.9,1.1,5.9,5.1C370.5,75.5,369,77.2,366.2,77.2z"/>
			<path class="st5" d="M376.6,77.2c-2.5,0-4.5-1.3-4.6-3.7h3.1c0,0.7,0.6,1.4,1.3,1.4h0.1c0.9,0,1.4-0.4,1.4-1.1
				c0-2.2-5.9-1-5.9-5.2c0-2.2,1.8-3.5,4.3-3.5s4.3,1.3,4.4,3.5h-3.1c0-0.7-0.6-1.3-1.3-1.2l0,0c-0.6-0.1-1.1,0.3-1.2,0.9
				c0,0.1,0,0.2,0,0.2c0,2.1,5.9,1.1,5.9,5.1C380.9,75.5,379.3,77.2,376.6,77.2z"/>
			<line class="st6" x1="398.9" y1="71.1" x2="401.4" y2="71.1"/>
			<line class="st7" x1="404.8" y1="71.1" x2="409.9" y2="71.1"/>
			<polyline class="st6" points="411.6,71.1 414.1,71.1 414.1,73.6 			"/>
			<line class="st8" x1="414.1" y1="78.8" x2="414.1" y2="149.3"/>
			<polyline class="st6" points="414.1,151.9 414.1,154.4 411.6,154.4 			"/>
			<line class="st9" x1="406.5" y1="154.4" x2="318.1" y2="154.4"/>
			<polyline class="st6" points="315.6,154.4 313.1,154.4 313.1,156.9 			"/>
			<line class="st10" x1="313.1" y1="161.4" x2="313.1" y2="177.1"/>
			<line class="st6" x1="313.1" y1="179.4" x2="313.1" y2="181.9"/>
			<line class="st11" x1="328.3" y1="68.9" x2="302.3" y2="68.9"/>
			<line class="st6" x1="92.9" y1="35.7" x2="92.9" y2="33.2"/>
			<polyline class="st6" points="92.9,27.6 92.9,25.1 95.4,25.1 			"/>
			<line class="st12" x1="100.1" y1="25.1" x2="134.8" y2="25.1"/>
			<line class="st6" x1="137.1" y1="25.1" x2="139.6" y2="25.1"/>
			<line class="st11" x1="92.9" y1="137" x2="92.9" y2="80.1"/>
			<path class="st13" d="M59.4,35.7h67c2.2,0,4.1,1.8,4.1,4.1V76c0,2.2-1.8,4.1-4.1,4.1h-67c-2.2,0-4.1-1.8-4.1-4.1V39.7
				C55.3,37.5,57.2,35.7,59.4,35.7z"/>
			<path class="st5" d="M67.7,49h-2.2l-2.1-2.3l2.1-2.3h2.2l-2.1,2.3L67.7,49z"/>
			<path class="st5" d="M77.9,40.6h1.7l-2.8,11.7h-1.7L77.9,40.6z"/>
			<path class="st5" d="M86.8,46.7l-2.1-2.3h2.2l2.1,2.3L86.9,49h-2.2L86.8,46.7z"/>
			<rect x="61.6" y="57.9" class="st5" width="51.6" height="1.5"/>
			<rect x="61.6" y="64.2" class="st5" width="62.7" height="1.5"/>
			<rect x="61.6" y="70.7" class="st5" width="51.6" height="1.5"/>
			<path class="st14" d="M368.7,328.9c-21.6,0-40.7,1.3-52.2,3.3c-15.9-2.8-52.2-4.7-94.5-4.7c-36.3,0-68.2,1.4-86.5,3.6
				c-10.4-2.2-28.6-3.6-49.2-3.6c-32.3,0-58.6,3.5-58.6,7.8s26.2,7.8,58.6,7.8c20.6,0,38.8-1.4,49.2-3.6c18.4,2.1,50.2,3.6,86.5,3.6
				c36.8,0,69-1.5,87.2-3.7c9.2,2.9,32.3,5,59.5,5c35.2,0,63.7-3.5,63.7-7.8S403.9,328.9,368.7,328.9z"/>
			<path class="st15" d="M121.9,191.2c0.3,6.6-0.3,13.3,0,19.9c0.4,8.3,1.1,16.4,2.2,24.6s2.1,16.2,3.3,24.3
				c0.6,4.1,1.1,8.2,1.6,12.2c0.2,1.2,2.1,7.9,1.2,9.1c-0.4,0.5-0.3,1.2,0.2,1.5s1.2,0.3,1.5-0.2c0.9-1.2,0.4-2.8,0.2-4.1
				c-0.5-3.9-1.1-7.8-1.6-11.7c-1.2-8.8-2.6-17.6-3.6-26.5c-1.1-8.5-2.3-17-2.6-25.6c-0.2-4.5-0.5-9-0.5-13.4
				c0-3.4,0.6-6.9,0.4-10.3C124,189.5,121.8,189.8,121.9,191.2L121.9,191.2z"/>
			<g>
				<path class="st5" d="M121.9,191.2c0.3,6.6-0.3,13.3,0,19.9c0.4,8.3,1.1,16.4,2.2,24.6s2.1,16.2,3.3,24.3
					c0.6,4.1,1.1,8.2,1.6,12.2c0.2,1.2,2.1,7.9,1.2,9.1c-0.4,0.5-0.3,1.2,0.2,1.5s1.2,0.3,1.5-0.2c0.9-1.2,0.4-2.8,0.2-4.1
					c-0.5-3.9-1.1-7.8-1.6-11.7c-1.2-8.8-2.6-17.6-3.6-26.5c-1.1-8.5-2.3-17-2.6-25.6c-0.2-4.5-0.5-9-0.5-13.4
					c0-3.4,0.6-6.9,0.4-10.3C124,189.5,121.8,189.8,121.9,191.2L121.9,191.2z"/>
			</g>
			<path class="st15" d="M87.5,141.8c3.4,4,6.9,7.4,9.5,12c3.2,5.8,5.6,12.1,8,18.3c4.5,11.5,8.5,23.3,12.1,35.2
				c2.7,9,5.7,18.1,7.5,27.4c1.3,6.9,2,13.8,2.9,20.7c0.4,3.3,1,6.5,1.7,9.8c0.4,1.8,0.5,5.3,1.9,6.5c1.1,0.9-0.3,2.6-1.4,1.7
				c-1.9-1.6-2-4.6-2.5-7c-1.5-7-2.2-14.1-3.2-21.1c-1.5-11.5-4.6-22.5-7.9-33.6s-6.9-22.1-10.9-33c-2.5-6.8-5.2-13.5-8.2-20.1
				c-2.9-6.2-6.8-10.3-11.1-15.4C84.9,142,86.6,140.7,87.5,141.8L87.5,141.8z"/>
			<g class="st16">
				<path class="st5" d="M87.5,141.8c3.4,4,6.9,7.4,9.5,12c3.2,5.8,5.6,12.1,8,18.3c4.5,11.5,8.5,23.3,12.1,35.2
					c2.7,9,5.7,18.1,7.5,27.4c1.3,6.9,2,13.8,2.9,20.7c0.4,3.3,1,6.5,1.7,9.8c0.4,1.8,0.5,5.3,1.9,6.5c1.1,0.9-0.3,2.6-1.4,1.7
					c-1.9-1.6-2-4.6-2.5-7c-1.5-7-2.2-14.1-3.2-21.1c-1.5-11.5-4.6-22.5-7.9-33.6s-6.9-22.1-10.9-33c-2.5-6.8-5.2-13.5-8.2-20.1
					c-2.9-6.2-6.8-10.3-11.1-15.4C84.9,142,86.6,140.7,87.5,141.8L87.5,141.8z"/>
			</g>
			<path class="st15" d="M51.6,167.7c1.5-12,6.4-21.1,16.5-27.4c3.5-2.2,10.5-6.1,14.6-6.9c3.6-0.7,2.6,3.2,0,3.3l1.1-0.1
				c0.2-0.7,6-0.8,7.1-0.6c3.7,0.8,4.5,2.9,4.7,6.4c0,3-0.5,5.9-1.7,8.6c-0.8,2.1-3.7,6.4-6.1,6.9c-0.5-3.2,2.8-8.6-0.3-11.3
				c-4.2,2.8-4.2,6.8-4.3,11.5c0,1.4,0.3,1.8-0.7,2.6c-1,0.5-2,0.8-3.1,1.1c-2.8,0.9-2.8-1.2-3-3.6c-0.3-2.8,0.3-5.4,0.3-8.2
				c-2.3,2.5-4.1,3.7-4.6,7.3c-0.3,2.7-0.2,5.4,0.5,8c-2.3,1.3-4.4,2.7-6.6,4c-1.4-2.9-0.8-6.6-2.1-9.1c-3.6,3-2.3,6.7-2.8,10.5
				c-0.2,1.7-2,3.4-3.3,4.8c-1.7,2-2.4,4-3.7,6.2C51.8,177.5,50.9,172.5,51.6,167.7z"/>
			<path class="st5" d="M51.6,167.7c1.5-12,6.4-21.1,16.5-27.4c3.5-2.2,10.5-6.1,14.6-6.9c3.6-0.7,2.6,3.2,0,3.3l1.1-0.1
				c0.2-0.7,6-0.8,7.1-0.6c3.7,0.8,4.5,2.9,4.7,6.4c0,3-0.5,5.9-1.7,8.6c-0.8,2.1-3.7,6.4-6.1,6.9c-0.5-3.2,2.8-8.6-0.3-11.3
				c-4.2,2.8-4.2,6.8-4.3,11.5c0,1.4,0.3,1.8-0.7,2.6c-1,0.5-2,0.8-3.1,1.1c-2.8,0.9-2.8-1.2-3-3.6c-0.3-2.8,0.3-5.4,0.3-8.2
				c-2.3,2.5-4.1,3.7-4.6,7.3c-0.3,2.7-0.2,5.4,0.5,8c-2.3,1.3-4.4,2.7-6.6,4c-1.4-2.9-0.8-6.6-2.1-9.1c-3.6,3-2.3,6.7-2.8,10.5
				c-0.2,1.7-2,3.4-3.3,4.8c-1.7,2-2.4,4-3.7,6.2C51.8,177.5,50.9,172.5,51.6,167.7z"/>
			<path class="st15" d="M144.6,227.3c-2.7,8.2-3.5,17.4-4.9,26c-1.2,7.3-3.1,15.2-2.5,22.6c0.1,1.4,2.3,1.1,2.2-0.2
				c-0.6-7.2,1.3-15,2.5-22c1.4-8.3,2.1-17.4,4.7-25.5C147,226.8,145,225.9,144.6,227.3L144.6,227.3z"/>
			<g>
				<path class="st15" d="M144.6,227.3c-2.7,8.2-3.5,17.4-4.9,26c-1.2,7.3-3.1,15.2-2.5,22.6c0.1,1.4,2.3,1.1,2.2-0.2
					c-0.6-7.2,1.3-15,2.5-22c1.4-8.3,2.1-17.4,4.7-25.5C147,226.8,145,225.9,144.6,227.3L144.6,227.3z"/>
			</g>
			<path class="st15" d="M157.4,222.1c-4-2.4-9.2-1.2-11.7,2.8c0-0.3-0.1-0.2-0.3-0.3l-0.1-0.7c-2.2-1.7-8.5-1.2-11.4-0.3
				c-4.2,1.4-8.1,6.5-8.4,10.8c-0.2,2.2,0.4,4.9,2,6.4c0.8-2.5,0.9-5.1,3.1-7c1.2-1,6.9-2.5,6.2,0.6c-0.2,0.9-2.4,2.6-2.9,3.8
				c-0.5,1.3-0.8,2.6-0.8,4c0,1-0.2,2.9,0.5,3.8s2.8,1.1,3.9,1.8c0.4-2.1-0.3-4.3,0.1-6.4s1.4-5,3.2-6.4c0.5,1.5,1.5,2.6,2,4.1
				c0.5,2,0.8,4,0.9,6.1c0.1,1.2-0.4,3.1-0.2,4.1c0.3,1.3,2.5,2.7,3.3,3.8c1.4-1.9,1-4.9,2.3-6.9c6.3,3-0.5,13.8,6.1,17.3
				c-2.1-4.5,2.5-7.5,4-11.2c1.8-4.5-1.6-7.8-4.2-11.1c1.8-0.9,4,0.1,5.4,1.3s1.2,2.3,1.9,3.8c1.2-4.7,3.1-11.9-3.7-12.6
				c-1.4-0.1-3,0.6-3.6-0.6c-0.5-1.2,0.1-2.5,1.2-3l0,0c3-1.7,6.6,0.1,8.2,2.7C164.4,229,160.4,223.8,157.4,222.1z"/>
			<path class="st5" d="M157.4,222.1c-4-2.4-9.2-1.2-11.7,2.8c0-0.3-0.1-0.2-0.3-0.3l-0.1-0.7c-2.2-1.7-8.5-1.2-11.4-0.3
				c-4.2,1.4-8.1,6.5-8.4,10.8c-0.2,2.2,0.4,4.9,2,6.4c0.8-2.5,0.9-5.1,3.1-7c1.2-1,6.9-2.5,6.2,0.6c-0.2,0.9-2.4,2.6-2.9,3.8
				c-0.5,1.3-0.8,2.6-0.8,4c0,1-0.2,2.9,0.5,3.8s2.8,1.1,3.9,1.8c0.4-2.1-0.3-4.3,0.1-6.4s1.4-5,3.2-6.4c0.5,1.5,1.5,2.6,2,4.1
				c0.5,2,0.8,4,0.9,6.1c0.1,1.2-0.4,3.1-0.2,4.1c0.3,1.3,2.5,2.7,3.3,3.8c1.4-1.9,1-4.9,2.3-6.9c6.3,3-0.5,13.8,6.1,17.3
				c-2.1-4.5,2.5-7.5,4-11.2c1.8-4.5-1.6-7.8-4.2-11.1c1.8-0.9,4,0.1,5.4,1.3s1.2,2.3,1.9,3.8c1.2-4.7,3.1-11.9-3.7-12.6
				c-1.4-0.1-3,0.6-3.6-0.6c-0.5-1.2,0.1-2.5,1.2-3l0,0c3-1.7,6.6,0.1,8.2,2.7C164.4,229,160.4,223.8,157.4,222.1z"/>
			<path class="st15" d="M89,207.8c-1.7-0.8-3.5-1.3-5.4-1.5c0.7-3.3-3.2-6.7-6-7.4c-3.6-1-6.8,0.1-10,1.8c-3.6,1.9-8.1,4.5-9.3,8.7
				c-0.3,1-1.2,4,0.3,4.4c2.4,0.6,4.4-4.3,6-5.4c0.9-0.6,2-0.8,3-0.5c1.6,0.6,2.4,3,1,4.1c-0.4,0.3-0.8,0.5-1.3,0.6
				c-3.1,1.1-6.3,2-9,4s-6.6,6.1-4.4,9.8c1.3,2.2,2.8-1.5,4-2.4c0.9-0.7,4.1-2.3,4.4-0.2s-3.9,3.2-5.1,3.9c-3.6,2-3,4.4-2.5,8.2
				c0.1,1.1,1.1,7.2,1.1,7.2l5.1-2.6c3.3-1.7,5.8-4.5,7-8c1.1-3.1,2.5-6.4,3.8-6c1.9,0.5-0.6,3.8-0.9,4.7c-0.4,1.9-0.4,3.9,0.2,5.7
				c3.4-0.2,7.3-2.2,8.1-5.8c0.2-1.1-0.5-4.3,0.8-4.8c1.7-0.6,2.5,2.8,2.6,3.9c0.2,2-0.2,4-1.2,5.7c2-0.3,3.9-0.9,5.7-1.9
				c2.4-1.2,3-2.6,2.1-5.1c-0.4-1.3-1.4-3.5-0.9-4.9c0.4-0.9,1.3-1.3,2.2-1.2c1.2,0.2,1.3,1.1,1.5,2.2c0.3,2-0.2,4.2,0.3,6.1
				c1.6-1.4,2.5-4.1,3.4-5.9c0.8-2,1.1-4.1,0.9-6.3C96.2,214.2,93.3,210,89,207.8z M67.6,200.7c-3.6,1.9-8.1,4.5-9.3,8.7
				 M81.5,206.4l0.7-0.1h0.2C82.1,206.3,81.8,206.3,81.5,206.4L81.5,206.4z"/>
			<path class="st5" d="M89,207.8c-1.7-0.8-3.5-1.3-5.4-1.5c0.7-3.3-3.2-6.7-6-7.4c-3.6-1-6.8,0.1-10,1.8c-3.6,1.9-8.1,4.5-9.3,8.7
				c-0.3,1-1.2,4,0.3,4.4c2.4,0.6,4.4-4.3,6-5.4c0.9-0.6,2-0.8,3-0.5c1.6,0.6,2.4,3,1,4.1c-0.4,0.3-0.8,0.5-1.3,0.6
				c-3.1,1.1-6.3,2-9,4s-6.6,6.1-4.4,9.8c1.3,2.2,2.8-1.5,4-2.4c0.9-0.7,4.1-2.3,4.4-0.2s-3.9,3.2-5.1,3.9c-3.6,2-3,4.4-2.5,8.2
				c0.1,1.1,1.1,7.2,1.1,7.2l5.1-2.6c3.3-1.7,5.8-4.5,7-8c1.1-3.1,2.5-6.4,3.8-6c1.9,0.5-0.6,3.8-0.9,4.7c-0.4,1.9-0.4,3.9,0.2,5.7
				c3.4-0.2,7.3-2.2,8.1-5.8c0.2-1.1-0.5-4.3,0.8-4.8c1.7-0.6,2.5,2.8,2.6,3.9c0.2,2-0.2,4-1.2,5.7c2-0.3,3.9-0.9,5.7-1.9
				c2.4-1.2,3-2.6,2.1-5.1c-0.4-1.3-1.4-3.5-0.9-4.9c0.4-0.9,1.3-1.3,2.2-1.2c1.2,0.2,1.3,1.1,1.5,2.2c0.3,2-0.2,4.2,0.3,6.1
				c1.6-1.4,2.5-4.1,3.4-5.9c0.8-2,1.1-4.1,0.9-6.3C96.2,214.2,93.3,210,89,207.8z M67.6,200.7c-3.6,1.9-8.1,4.5-9.3,8.7
				 M81.5,206.4l0.7-0.1h0.2C82.1,206.3,81.8,206.3,81.5,206.4L81.5,206.4z"/>
			<path class="st15" d="M75.6,212.5c6.6-7.7,15.7-5,22.8,0.2c6.5,4.7,11.5,11.2,14.6,18.6c3.1,7,5.3,14.5,6.5,22.1
				c0.5,3.6,0.8,7.3,0.9,11c-0.1,2,0,4,0.2,6c0.2,1.6,0.7,3.1,0.3,4.7c-0.2,1.1,1.4,1.3,1.7,0.3c0.2-1.4,0.2-2.9-0.2-4.2
				c-0.3-2.3-0.4-4.7-0.3-7c-0.2-14.1-3.9-27.9-10.8-40.2c-6.7-11.5-25.2-26.4-36.9-12.6C73.6,212.3,74.9,213.3,75.6,212.5
				L75.6,212.5z"/>
			<g>
				<path class="st5" d="M75.6,212.5c6.6-7.7,15.7-5,22.8,0.2c6.5,4.7,11.5,11.2,14.6,18.6c3.1,7,5.3,14.5,6.5,22.1
					c0.5,3.6,0.8,7.3,0.9,11c-0.1,2,0,4,0.2,6c0.2,1.6,0.7,3.1,0.3,4.7c-0.2,1.1,1.4,1.3,1.7,0.3c0.2-1.4,0.2-2.9-0.2-4.2
					c-0.3-2.3-0.4-4.7-0.3-7c-0.2-14.1-3.9-27.9-10.8-40.2c-6.7-11.5-25.2-26.4-36.9-12.6C73.6,212.3,74.9,213.3,75.6,212.5
					L75.6,212.5z"/>
			</g>
			<path class="st17" d="M82.4,207.1c0.3-0.1,0.6-0.3,1-0.4c0.2-0.1,0.1-0.4-0.1-0.3c-1,0.4-1.9,0.9-2.9,1.4
				c-1.5-3.7-6.7-4.8-10.2-5.5c-0.2,0-0.2,0.3,0,0.3c3.3,0.7,8.5,1.8,9.9,5.4c-1.3,0.7-2.6,1.5-3.8,2.4c-1.2-2.4-3.6-4.1-6.3-4.4
				c-0.2,0-0.2,0.3-0.1,0.3c2.6,0.3,4.8,1.9,6,4.2c-2.3,1.7-4.3,3.6-6,5.8c-0.7-1.2-7.8,2-8.5,2.4c-0.2,0.1,0,0.3,0.2,0.2
				c1.2-0.7,2.4-1.3,3.7-1.7c0.2-0.1,4.3-1.3,4.3-0.7l0,0l0,0l0,0c-0.1,0.2-0.2,0.3-0.4,0.5c-2.2,3.2-4.2,6.5-5.9,10
				c-0.1,0-0.1,0.1-0.1,0.1l0,0c0,0,0,0,0,0.1l-0.1,0.1c-2.3,1.7-4.1,4-5,6.7c-0.1,0.2,0.2,0.3,0.3,0.1c0.8-2.4,2.3-4.6,4.3-6.2
				c-1.2,2.4-2.3,4.8-3.5,7.1c-0.1,0.2,0.2,0.3,0.3,0.1c1.3-2.4,2.5-5,3.7-7.4c0.4,3.1,0.2,6.2-0.6,9.1c0,0.2,0.2,0.2,0.3,0.1
				c0.9-3.1,1.1-6.5,0.6-9.7c1.6-3.2,3.3-6.3,5.3-9.2c0.3-0.4,0.5-0.8,0.8-1.1c0.6,2.9,0.6,5.9,0.1,8.8c0,0.2,0.3,0.2,0.3,0.1
				c0.5-2.8,0.5-5.6,0-8.4c3.2,3.1,4.9,7.5,4.8,11.9c0,0.2,0.3,0.2,0.3,0c0.2-4.7-1.6-9.2-5-12.4l0,0c0-0.1,0-0.2-0.1-0.3
				c1.8-2.3,3.9-4.3,6.2-6.1c2.6,4.7,4.5,9.8,5.7,15c0,0.2,0.3,0.2,0.3,0c-1.2-5.3-3.2-10.4-5.8-15.2c1.1-0.8,2.3-1.6,3.6-2.2l0,0
				c0,0.1,0.1,0.1,0.2,0.1l0,0l0,0c1.9,4.1,3.1,8.5,3.6,13c0,0.1,0.1,0.1,0.2,0.1s0.1-0.1,0.1-0.1c-0.5-4.5-1.7-8.9-3.6-13.1
				c0-0.1-0.1-0.1-0.2-0.1c0,0,0,0,0-0.1s0,0,0,0c0.5-0.3,1.1-0.6,1.6-0.8c0,0.1,0,0.1,0.1,0.1c5.2,2.7,9.1,7.2,11.1,12.7
				c0,0.1,0.1,0.1,0.2,0.1s0.1-0.1,0.1-0.2C91.7,214.4,87.6,209.9,82.4,207.1z"/>
			<path class="st17" d="M162.3,239.5c-3-1.8-6.6-2.3-10-1.5c-0.2,0.1-0.2,0.4,0.1,0.4c3.3-0.8,6.9-0.3,9.8,1.5
				C162.4,240,162.5,239.6,162.3,239.5z"/>
			<path class="st17" d="M155.2,227.2c-1.2-0.5-2.6-0.8-3.9-0.7c-0.6,0-1.2,0.1-1.8,0.3c-0.7,0.3-1.4,0.6-2.1,0.8l-0.1-0.1
				c-0.1,0-0.2,0-0.2,0.1c-0.1,0-0.1,0-0.2,0h-0.1l-0.2-0.5l0,0c1-1.2,4.9-5,6.7-3.4c0.2,0.2,0.4-0.1,0.2-0.3
				c-1-0.9-2.4-0.2-3.4,0.4c-1.4,0.8-2.7,1.8-3.8,3l-0.6-1.3c-0.1-0.2-0.5-0.1-0.4,0.1c0.2,0.5,0.4,1,0.7,1.4c0-0.1-0.1-0.1-0.2-0.1
				c-1.8,0.6-4-0.1-5.9,0.3c-1.5,0.3-2.8,1-4,1.9c-0.2,0.1,0,0.5,0.2,0.3c1.5-1.2,3.4-1.9,5.3-2.1c1.5-0.1,2.9,0.4,4.4-0.1
				c0.1,0,0.1-0.1,0.1-0.2l0,0c0.2,0.4,0.4,0.8,0.6,1.3c-2.9,0.8-5.4,2.5-7.2,4.8c0,0.1,0,0.2,0.1,0.3c0.1,0,0.2,0,0.2,0
				c1.8-2.3,4.2-3.9,7-4.7l0.9,1.7v0.1c0,0.3,0,0.6,0.1,0.8c-0.1-0.1-0.2-0.1-0.2,0l0,0c-1,1.4-1.8,3-2.3,4.6
				c-0.1,0.2,0.3,0.4,0.4,0.2c0.5-1.6,1.2-3.1,2.2-4.5c0.1,2.2,0,4.3-0.3,6.4c0,0.1,0.1,0.2,0.2,0.2c0.1,0,0.2-0.1,0.2-0.1
				c0.3-2.3,0.4-4.6,0.2-6.9c0.9,1.8,1.7,3.5,2.5,5.3c-0.1,0-0.1,0-0.1,0.1c-1.4,2.7-2.7,5.5-3.7,8.4c-0.1,0.2,0.3,0.4,0.4,0.2
				c1-2.8,2.3-5.6,3.7-8.3c2.1,4.8,4,9.6,4.4,14.6c0,0.1,0.1,0.2,0.2,0.2c0.1,0,0.2-0.1,0.2-0.2c-0.6-7.3-4-14.2-7.3-20.9
				c1.8,0.7,3.4,1.6,4.8,2.8c0.2,0.2,0.4-0.1,0.2-0.3c-1.5-1.2-3.3-2.2-5.1-2.9c-0.1,0-0.1,0-0.2,0c-0.4-0.8-0.7-1.5-1.1-2.2h0.3
				l4.4,2.5c0.2,0.1,0.4-0.2,0.2-0.4l-4-2.3c0.7-0.2,1.4-0.7,2.1-0.8c1.7-0.4,3.4-0.2,5,0.5C155.3,227.6,155.5,227.3,155.2,227.2z"
				/>
			<path class="st17" d="M79.5,137.3c1.2-0.4,2.4-0.6,3.6-0.7c0.2,0,0.2-0.4,0-0.4c-2.8,0.3-5.4,1.1-7.8,2.5c-0.1-0.1-0.4,0-0.3,0.2
				c-3.3,1.9-6.4,4.2-9.2,6.8c-0.1-0.1-0.2-0.1-0.3,0c-0.1,0.1-0.1,0.1-0.1,0.2v0.1l-0.8,0.7c-2.7,2.3-4.9,5.1-6.5,8.3
				c-0.1,0-0.1,0.1-0.1,0.2l0,0c-1.2,2.5-1.9,5.1-2,7.9c0,0.1,0,0.1,0.1,0.2c-1.9,3.1-2.7,6.8-2.2,10.4c0,0.2,0.4,0.2,0.4,0
				c-0.4-3.4,0.2-6.8,1.9-9.7l-1.3,9.6c0,0.2,0.4,0.3,0.4,0.1c0.4-3.2,0.9-6.4,1.3-9.7c0-0.1-0.1-0.2-0.2-0.2h-0.1
				c0.1-0.1,0.2-0.3,0.2-0.4c0.1-0.1,0-0.2-0.1-0.3l0,0c0.1-2.4,0.7-4.8,1.7-7c0.2,3.2,0.1,6.5-0.2,9.7c0,0.2,0.4,0.3,0.4,0.1
				c0.4-3.5,0.5-7,0.2-10.5c0.4-0.8,0.8-1.5,1.2-2.3c0.2,1.8,0.5,3.7,0.7,5.5c0,0.1,0.1,0.2,0.3,0.1c0.1,0,0.1-0.1,0.1-0.2
				c-0.3-2-0.5-4-0.8-6c1.2-1.7,2.5-3.2,3.9-4.6c0.4,2.7,0.7,5.5,0.8,8.3c0,0.2,0.4,0.2,0.4,0c-0.1-2.8-0.4-5.6-0.8-8.4
				c0-0.1-0.1-0.1-0.1-0.1c0.4-0.4,0.9-0.8,1.4-1.2c1.7,5.4,2.4,11,2.1,16.6c0,0.2,0.4,0.3,0.4,0.1c0.3-5.7-0.5-11.4-2.2-16.9
				l1.7-1.4c0.5,1.9,0.8,3.8,0.9,5.7c0,0.2,0.4,0.2,0.4-0.1c-0.1-2-0.5-4-1-6c2.3-1.9,4.7-3.7,7.3-5.2c2.2,4.6,3.4,9.6,3.5,14.7
				c0,0.2,0.4,0.2,0.4,0c-0.1-5.2-1.3-10.2-3.5-14.9c0.5-0.3,1-0.6,1.6-0.8c0.7,2.2,1.5,4.3,2.4,6.4c0.1,0.2,0.5,0.1,0.4-0.1
				c-0.9-2.1-1.7-4.2-2.4-6.4c0.5-0.2,1.1-0.4,1.6-0.6c0,0.1,0,0.2,0.1,0.2l0,0c3.9,0.3,5.6,3.9,6.2,7.4c0,0.1,0.1,0.2,0.2,0.2
				s0.1-0.1,0.2-0.2C85.1,141.5,83.3,137.8,79.5,137.3z"/>
			<path class="st17" d="M73.1,140.9c-0.1-0.2-0.4-0.2-0.4,0.1c0.5,2.2,0.5,4.4-0.2,6.5c-0.1,0.2,0.3,0.4,0.4,0.2
				C73.6,145.4,73.6,143.1,73.1,140.9z"/>
			<path class="st17" d="M81.5,136.9c-0.2-0.1-0.4,0.3-0.2,0.4c3.5,1.2,6,4.3,6.2,8c0,0.1,0.1,0.2,0.2,0.2s0.1-0.1,0.2-0.2
				C87.7,141.4,85.1,138.1,81.5,136.9z"/>
			<path class="st15" d="M141.6,181.5c-2.2-0.4-4.4-0.5-6.6-0.1c1.6-3.7,8.8-2.4,11.4-0.8c-2.2-1.9-4.2-3.9-6.1-6
				c-2.1-2.4-3.2-4.2-6.6-4.8c-2.6-0.4-5.2,0-7.5,1.1c-3,1.3-4,4.3-4.5,7.3v-1.8c-0.7,0.1-2.1-1.4-3-1.8c-1.2-0.5-2.5-0.8-3.8-0.9
				c-2.9-0.3-5.8,0.1-8.6,1c-6.3,2.4-8.4,9.9-6.9,15.9c1,3.5,2.8,6.8,5.4,9.5c0.2-2.3-0.6-4.5,0-6.8c0.4-1.5,4.3-7.6,6-4.3
				c0.5,1-1,2-1.5,3c-0.4,1.1-0.7,2.3-0.9,3.5c-0.5,2.5-0.6,5.1-0.2,7.6c0.7,3.6,3.9,4.6,6.8,6.3c-0.2-2.6-1.3-5.1-0.5-7.8
				c0.7-2.3,2.8-5.4,5.4-3.2c-2.7,2-2.6,7.1-1.9,10.1c1,3.9,4.7,4.6,8,5.9c-1-2.8-3-8.9,0.9-10.3c3.6-1.3,5.7,6.2,5.4,9
				c3.2,0.8,4.6,2.9,6.9,4.9c2.8-2.7,6.6-9.8,5.6-13.8c-1.1-4.4-5.5-7.6-8.1-11.1c4-4.7,8.9,3.7,10.6,6.4c-0.4-4.5,0.1-8.9-0.4-13.4
				C146.5,182.7,144.9,182.3,141.6,181.5z"/>
			<path class="st5" d="M141.6,181.5c-2.2-0.4-4.4-0.5-6.6-0.1c1.6-3.7,8.8-2.4,11.4-0.8c-2.2-1.9-4.2-3.9-6.1-6
				c-2.1-2.4-3.2-4.2-6.6-4.8c-2.6-0.4-5.2,0-7.5,1.1c-3,1.3-4,4.3-4.5,7.3v-1.8c-0.7,0.1-2.1-1.4-3-1.8c-1.2-0.5-2.5-0.8-3.8-0.9
				c-2.9-0.3-5.8,0.1-8.6,1c-6.3,2.4-8.4,9.9-6.9,15.9c1,3.5,2.8,6.8,5.4,9.5c0.2-2.3-0.6-4.5,0-6.8c0.4-1.5,4.3-7.6,6-4.3
				c0.5,1-1,2-1.5,3c-0.4,1.1-0.7,2.3-0.9,3.5c-0.5,2.5-0.6,5.1-0.2,7.6c0.7,3.6,3.9,4.6,6.8,6.3c-0.2-2.6-1.3-5.1-0.5-7.8
				c0.7-2.3,2.8-5.4,5.4-3.2c-2.7,2-2.6,7.1-1.9,10.1c1,3.9,4.7,4.6,8,5.9c-1-2.8-3-8.9,0.9-10.3c3.6-1.3,5.7,6.2,5.4,9
				c3.2,0.8,4.6,2.9,6.9,4.9c2.8-2.7,6.6-9.8,5.6-13.8c-1.1-4.4-5.5-7.6-8.1-11.1c4-4.7,8.9,3.7,10.6,6.4c-0.4-4.5,0.1-8.9-0.4-13.4
				C146.5,182.7,144.9,182.3,141.6,181.5z"/>
			<path class="st17" d="M140.6,202.9c-2.4-3.2-5.3-6.1-8.5-8.5c-1.3-1.8-2.5-3.7-3.7-5.6l6.1,2.2c0.2,0.1,0.4-0.3,0.2-0.4l-5.6-2
				l9-1.4c0.1,0,0.2-0.1,0.2-0.2c0-0.1-0.1-0.2-0.2-0.2l-9.9,1.5c-0.6-0.9-1.2-1.9-1.8-2.8l6.8-1.6c0.2-0.1,0.2-0.4,0-0.4l-7,1.6
				c-0.9-1.4-1.7-2.9-2.5-4.3c3.3-2.6,7.4-4.1,11.6-4.1c0.2,0,0.2-0.4,0-0.4c-4.3,0.1-8.4,1.5-11.7,4.2l-0.1-0.2
				c0-0.1,0-0.2-0.1-0.2l0,0c-0.5-1-1.1-1.9-1.6-2.9c-0.1-0.2-0.5-0.1-0.4,0.1c0.5,1,1,2,1.6,3h-0.1c-5.3-1.2-13.1-0.3-16.2,4.6
				c-0.1,0.2,0.2,0.5,0.3,0.2c2.8-4.6,10.2-5.6,15.4-4.6c-2.7,1.7-5.2,3.7-7.4,6c-0.2,0.2,0.1,0.4,0.3,0.2c2.3-2.3,4.8-4.4,7.6-6.1
				l0.3,0.1c0.8,1.5,1.7,3,2.5,4.4c-1,3.1-1.7,6.4-2.2,9.6c0,0.1,0.1,0.2,0.2,0.2s0.2-0.1,0.2-0.1c0.4-3.1,1.1-6.2,2.1-9.2
				c0.6,1,1.2,2,1.8,2.9c0,0.1,0,0.1,0.1,0.1c0.7,1.1,1.4,2.1,2.1,3.1c0.5,0.7,1,1.4,1.5,2.1c0,0-0.1,0-0.1,0.1h-0.1
				c-2.8,2.4-5.4,5.1-7.6,8c-0.1,0.1,0,0.2,0.1,0.3s0.2,0,0.3,0c2.2-2.9,4.7-5.5,7.5-7.8c0.5,2.9,0.7,5.9,0.9,8.8
				c0,0.3,0.4,0.2,0.4,0c-0.1-3-0.4-5.9-0.9-8.8l0.1,0.1c3.5,4.9,7.1,9.9,6,16.3c0,0.1,0.1,0.2,0.2,0.2c0.1,0,0.2-0.1,0.2-0.1
				c1-5.6-1.7-10.3-4.8-14.8l-0.5-0.8c2.8,2.2,5.3,4.8,7.5,7.6C140.5,203.4,140.8,203.1,140.6,202.9z"/>
			<path class="st17" d="M125.3,185.3c-3.8,1.5-7,4.3-9,7.9c-0.1,0.2,0.2,0.4,0.4,0.2c2-3.5,5.1-6.3,8.8-7.7
				c0.1-0.1,0.1-0.2,0.1-0.3S125.4,185.2,125.3,185.3z"/>
			<path class="st18" d="M104,265.7l1.4,6.9l3.9,58.5c0.5,1.8,2.2,3,4.1,2.9H145c1.9,0.1,3.6-1.2,4.1-3l4.2-56.5l1.5-8.9L104,265.7z
				"/>
			<path class="st19" d="M151.3,301.7c-2.3-0.7-4.6-1.3-6.9-2.1c-3-0.9-5.9-2-8.7-3.3c-5.2-2.3-10.2-5.3-14.7-8.8
				c-4.1-3.1-7.9-6.7-11.2-10.6c-2.4-2.8-4.2-6-5.4-9.5l-0.3-1.8h50.8l-1.5,8.9L151.3,301.7z"/>
			<path class="st18" d="M150.2,275.1h-41.9c-3,0-5.7-1.6-6.6-4l-2.4-6.6c-0.5-1.3,0.6-2.5,2.2-2.5h55.8c1.6,0,2.7,1.2,2.1,2.5
				l-2.8,6.7C155.7,273.5,153,275.1,150.2,275.1z"/>
			<linearGradient id="SVGID_1_" gradientUnits="userSpaceOnUse" x1="185.4508" y1="133.4508" x2="185.7256" y2="133.7256">
				<stop  offset="0" style="stop-color:#17356B"/>
				<stop  offset="0.8603" style="stop-color:#17356B"/>
			</linearGradient>
			<path class="st20" d="M153.3,0h132.8c8.9,0,16.2,7.2,16.2,16.2v303c0,8.9-7.2,16.2-16.2,16.2H153.3c-8.9,0-16.2-7.2-16.2-16.2
				v-303C137.1,7.2,144.3,0,153.3,0z"/>
			<path class="st13" d="M296.1,21.6v295.7H143.2V21.6c0-8.3,6.7-15,15-15h32.6v7.5c0,3.3,2.7,5.9,5.9,5.9h45.8
				c3.3,0,5.9-2.7,5.9-5.9V6.7H281C289.4,6.7,296.1,13.4,296.1,21.6z"/>
			<path class="st21" d="M272.7,147.9H164.3c-4.9,0-8.9-4-8.9-8.9l0,0V86.2c0-4.9,4-8.9,8.9-8.9l0,0h108.4c4.9,0,8.9,4,8.9,8.8l0,0
				V139C281.5,144,277.6,147.9,272.7,147.9z"/>
			<path class="st4" d="M164.3,158.4h108.3c4.9,0,8.9,4,8.9,8.9v52.9c0,4.9-4,8.9-8.9,8.9H164.3c-4.9,0-8.9-4-8.9-8.9v-52.9
				C155.4,162.4,159.4,158.4,164.3,158.4z"/>
			<path class="st22" d="M247.7,60.2h-54.5c-6,0-10.9-4.9-10.9-10.9l0,0l0,0c0-6,4.9-10.9,10.9-10.9h54.5c6,0,10.9,4.9,10.9,10.9
				l0,0l0,0C258.6,55.3,253.7,60.2,247.7,60.2L247.7,60.2z"/>
			<path class="st5" d="M203.9,44.5v8.2h3.2v1.5H202v-9.7H203.9z"/>
			<path class="st5" d="M212.9,54.3c-2.8,0-5-2.2-5-4.9c0-2.8,2.2-5,4.9-5s5,2.2,5,4.9l0,0c0.1,2.7-2,4.9-4.7,5
				C213,54.3,212.9,54.3,212.9,54.3z M212.9,52.6c1.6,0,2.9-1.3,3-2.9c0-0.1,0-0.2,0-0.4c0.3-1.6-0.8-3.2-2.5-3.4
				c-1.6-0.3-3.2,0.8-3.4,2.5c-0.1,0.3-0.1,0.7,0,1c-0.2,1.6,1,3,2.6,3.2C212.6,52.6,212.7,52.6,212.9,52.6z"/>
			<path class="st5" d="M228.2,47.5H226c-0.5-0.8-1.3-1.3-2.3-1.2c-1.6,0-2.9,1.2-3,2.8c0,0.1,0,0.2,0,0.4c-0.2,1.6,1,3,2.6,3.2
				c0.1,0,0.3,0,0.4,0c1.4,0.1,2.5-0.9,2.8-2.2h-3.3V49h5.2v1.7c-0.5,2.2-2.5,3.8-4.7,3.8c-2.7-0.1-4.8-2.4-4.7-5.2
				c0.1-2.6,2.2-4.6,4.7-4.7C225.7,44.3,227.6,45.6,228.2,47.5z"/>
			<path class="st5" d="M234.4,54.3c-2.8,0-5-2.2-5-4.9c0-2.8,2.2-5,4.9-5s5,2.2,5,4.9l0,0c0.1,2.7-2,4.9-4.7,5
				C234.5,54.3,234.5,54.3,234.4,54.3z M234.4,52.6c1.6,0,2.9-1.3,3-2.9c0-0.1,0-0.2,0-0.3c0.3-1.6-0.8-3.2-2.5-3.4
				c-1.6-0.3-3.2,0.8-3.4,2.5c-0.1,0.3-0.1,0.7,0,1c-0.2,1.6,1,3,2.6,3.2C234.2,52.6,234.3,52.6,234.4,52.6z"/>
			<rect x="155.4" y="240.4" class="st23" width="30.4" height="28.6"/>
			<rect x="155.4" y="274.5" class="st4" width="30.4" height="28.6"/>
			<rect x="189.9" y="241.9" class="st5" width="51.1" height="1.5"/>
			<rect x="189.9" y="259.3" class="st5" width="51.1" height="1.5"/>
			<rect x="189.9" y="247.7" class="st5" width="31.3" height="1.5"/>
			<rect x="189.9" y="265" class="st5" width="31.3" height="1.5"/>
			<rect x="189.9" y="253.5" class="st5" width="41.1" height="1.5"/>
			<rect x="189.9" y="276.5" class="st5" width="51.1" height="1.5"/>
			<rect x="189.9" y="293.8" class="st5" width="51.1" height="1.5"/>
			<rect x="189.9" y="282.3" class="st5" width="31.3" height="1.5"/>
			<rect x="189.9" y="299.6" class="st5" width="31.3" height="1.5"/>
			<rect x="189.9" y="288" class="st5" width="41.1" height="1.5"/>
			<path class="st4" d="M278.6,251.6h-24.5c-3.1,0-5.6-2.5-5.6-5.6l0,0l0,0c0-3.1,2.5-5.6,5.6-5.6l0,0h24.5c3.1,0,5.6,2.5,5.6,5.6
				l0,0l0,0C284.2,249.1,281.7,251.6,278.6,251.6z"/>
			<path class="st4" d="M214.9,217.3h-48c-3.1,0-5.6-2.5-5.6-5.6l0,0c0-3.1,2.5-5.6,5.6-5.6l0,0h48c3.1,0,5.6,2.5,5.6,5.6l0,0
				C220.4,214.8,217.9,217.3,214.9,217.3z"/>
			<path class="st23" d="M214.9,139h-48c-3.1,0-5.6-2.5-5.6-5.6l0,0l0,0c0-3.1,2.5-5.6,5.6-5.6l0,0h48c3.1,0,5.6,2.5,5.6,5.6l0,0
				C220.4,136.5,217.9,139,214.9,139L214.9,139z"/>
			<path class="st4" d="M278.6,285.7h-24.5c-3.1,0-5.6-2.5-5.6-5.6l0,0l0,0c0-3.1,2.5-5.6,5.6-5.6h24.5c3.1,0,5.6,2.5,5.6,5.6l0,0
				C284.2,283.2,281.7,285.7,278.6,285.7L278.6,285.7z"/>
			<rect x="162.3" y="86.3" class="st5" width="104" height="1.5"/>
			<rect x="162.3" y="92.7" class="st5" width="82.6" height="1.5"/>
			<rect x="162.3" y="99" class="st5" width="90.9" height="1.5"/>
			<rect x="162.3" y="105.5" class="st5" width="82.6" height="1.5"/>
			<rect x="162.3" y="111.9" class="st5" width="90.9" height="1.5"/>
			<rect x="162.3" y="169.5" class="st23" width="59.7" height="1.5"/>
			<rect x="162.3" y="175.9" class="st5" width="38.3" height="1.5"/>
			<rect x="162.3" y="182.3" class="st5" width="46.6" height="1.5"/>
			<rect x="162.3" y="188.7" class="st5" width="38.3" height="1.5"/>
			<rect x="162.3" y="195.1" class="st5" width="46.6" height="1.5"/>
			<path class="st24" d="M348.4,187.6l-10.4,1.3l-2.2,6.9c-0.5,1.3-1,2.7-1.4,4.1l-1.1,0.4c-1.7,0.6-3.3,1.6-4.6,2.9l-3,2.9
				c-0.5,0.6,0,1.3,0.8,0.9l2.6-2l-1.3,2.1c-0.7,1.2-1.4,2.4-1.9,3.7l-0.8,2c0,0.4,0.3,0.7,0.7,0.7c0.2,0,0.5-0.1,0.6-0.3l2.9-5
				l-1.5,3.2l-1.4,3.4c-0.2,0.8,0.9,1,1.2,0.5l1.4-2.9l2-3.4l-0.8,2.8c-0.2,0.6-0.2,1.3-0.2,1.9l0.1,2.2c0.5,0.9,1,0.6,1.5,0.1v-2
				c0-0.7,0.2-1.4,0.4-2.1l1.1-2.7l0.2,5.4c0.2,0.8,1.5,0.5,1.4-0.2c-0.1-1.8,0-3.6,0.3-5.3c1.9-1.5,3.4-3.5,4.2-5.7l1-3
				L348.4,187.6z"/>
			<path class="st23" d="M341.1,142.9l3.5,20.4l-9.4,34.7l5,4.4l12.1-21.7c4.4-7.8,6.6-16.7,6.5-25.7l-0.3-12.3
				c-0.1-4.4-2.4-8.5-6.1-10.9c-4.8-3.1-8.5-2-10.9,4.8C340.9,138.6,340.7,140.8,341.1,142.9z"/>
			<path class="st25" d="M358.8,155l-0.3-12.3c-0.1-4.4-2.4-8.5-6.1-10.9c-2.2-1.4-4.2-2-5.9-1.5c-2.4,3.8-2.3,8.8-1.7,13.1
				c0.7,4.3,1.7,8.5,3.2,12.6c1,2.8,1.7,5.6,2.1,8.6c0.4,2.9,0.3,5.9-0.2,8.7c-0.6,2.9-1.5,5.7-2.5,8.5c-0.9,2.8-1.9,5.5-3,8.2
				c-0.6,1.4-1.3,2.7-1.9,4s-1.1,2.7-1.5,4.2c-0.4,1.3-0.7,2.7-1.1,4l0.3,0.2l12.1-21.7C356.8,172.8,359,164,358.8,155z"/>
			<polygon class="st5" points="396,331.4 389.8,331.5 377.7,261.2 377.7,213.4 374.5,213.9 370.5,273 365.1,331.4 357.1,331.4 
				357.1,259.1 359.8,193.2 394.7,193.2 392.4,264.4 			"/>
			<path class="st23" d="M343.2,133.1l2.4,10.7c1.7,7.4,4.2,14.5,7.4,21.3l5.4,11.1l0.9,23.9c14.8,7.4,38-2.5,38-2.5l-8.3-52.4
				c-2.1-17.1-9.2-22.3-14.2-23.4c-2.7-0.6-5.6-0.8-8.4-0.4l-0.7,0.1c-1,0.2-2.1,0.4-3.1,0.7l-6.4,1.9c-2.1,0.6-4.1,1.5-6,2.7h-0.1
				c-0.4,0.2-0.7,0.4-1,0.7C346.9,129,344.9,130.9,343.2,133.1z"/>
			<path class="st25" d="M385.9,142.9c0-3.1-0.4-6.1-1.1-9.1c-0.6-2.4-2.1-4.6-2.4-7.1c-1.6-2-3.7-3.5-6-4.4
				c-1.9,1.7-3.4,3.8-4.3,6.2c-0.8,2.6-1.2,5.4-1.1,8.1c0,5.6,0.6,11.2,0.6,16.9c0.2,5.8-0.4,11.6-1.7,17.2c-0.7,2.8-1.7,5.4-2.9,8
				c-1.4,2.6-3,5.1-4.9,7.4c-1,1.3-2.1,2.6-3.2,4l0.4,10.1c1.2,0.6,2.5,1.1,3.9,1.4c0.4-0.4,0.8-0.9,1.2-1.3
				c2.1-2.2,4.3-4.3,6.2-6.6c2-2.2,3.7-4.7,5.2-7.3c1.4-2.5,2.7-5.1,3.8-7.8c2.2-5.4,3.9-11.1,4.9-16.9
				C385.7,155.5,386.1,149.2,385.9,142.9z"/>
			<path class="st25" d="M372,126.7c0.3-0.6,0.7-1.2,1-1.8c-0.3,0.2-0.5,0.5-0.8,0.7c-1.8,1.8-3,4-3.5,6.5c-0.4,2.2-0.7,4.3-0.7,6.5
				c-0.1,2.5-0.2,5.1-0.3,7.6c-0.1,5.3-0.1,10.6-1.4,15.7c-1.5,6.1-4.6,11.4-7.8,16.8l0.4,10c1.4-1.7,2.9-3.5,4.2-5.3
				c7.1-9.6,8-21.9,7.7-33.4c-0.1-2.8-0.2-5.6-0.4-8.5c-0.2-2.6-0.2-5.3,0-7.9C370.5,131.2,371,128.8,372,126.7z"/>
			<path class="st26" d="M368.9,186.9l-10.6-0.2l-3.2,7.4c-0.7,1.4-1.3,2.9-1.9,4.4l-1.2,0.3c-1.8,0.5-3.5,1.3-5,2.5l-3.4,2.8
				c-0.6,0.6-0.2,1.5,0.7,1.1l2.9-1.8l-1.6,2.2c-0.9,1.2-1.7,2.5-2.4,3.9l-1.1,2.1c-0.1,0.4,0.1,0.8,0.4,0.9c0.3,0.1,0.6,0,0.8-0.2
				l3.6-5.1l-2,3.3l-1.9,3.7c-0.3,0.9,0.8,1.3,1.1,0.7l1.8-3l2.5-3.6l-1.2,3.1c-0.3,0.7-0.4,1.4-0.5,2.1l-0.2,2.4
				c0.3,1.1,0.9,0.9,1.4,0.3l0.3-2.1c0.1-0.8,0.4-1.6,0.7-2.3l1.5-2.9l-0.6,6.1c0,0.4,0.3,0.7,0.7,0.7c0.4,0,0.7-0.3,0.7-0.7l0,0
				c0.2-2,0.5-4,1.1-6c2.2-1.4,3.9-3.4,5-5.8l1.5-3.3L368.9,186.9z"/>
			<path class="st23" d="M368.1,135.4l0.5,23.6l-14.4,37.6l4.3,5.7l15.2-22.6c5.6-8.4,9.1-18,10.2-28l1.5-14c0.6-4.8-1-9.7-4.4-13.2
				c-4.3-4.3-8.2-3.6-11.5,3.7C368.5,130.6,368.1,133,368.1,135.4z"/>
			<path class="st27" d="M344.8,337.9c0,0.8,0.7,1.4,1.5,1.4h16.3c1.7,0,3.8-1.2,3.2-2.9l-1-5h-6c0,0.1-12.8,4.9-13.5,5.4
				C345,337.1,344.8,337.5,344.8,337.9z"/>
			<path class="st27" d="M376,337.9c0,0.8,0.7,1.4,1.5,1.4h16.3c1.7,0,3.8-1.2,3.2-2.9l-1-5h-6c0,0.1-12.8,4.9-13.5,5.4
				C376.2,337.1,376,337.5,376,337.9z"/>
			<path class="st26" d="M363.6,124.9c0.2,2.7-1.5,5.2-4.2,5.9c-2.6,0.7-5.3-1-6-3.6c-0.1-0.4-0.1-0.7-0.1-1.1v-2l-0.3-5.9
				c0-0.4,4.1-0.9,4.1-0.9l2.2-1.6l3.3-2.4l0.1-0.1v0.9l0.5,7.1l0.2,1.7L363.6,124.9z"/>
			<path class="st28" d="M360.5,115.1c0.3,4.9-2.6,9.4-7.2,11.1v-2l-0.3-5.9c0-0.4,0.2-0.8,0.6-1l3.5,0.1l2.2-1.6L360.5,115.1z"/>
			<path class="st23" d="M365.7,128.1c0.3-2.7,0.1-5.4-0.7-8c-0.1-0.4-0.3-0.7-0.6-0.9c-0.3-0.1-0.6,0-0.9,0.1
				c-3.5,1.2-7.2,2.1-10.9,2.4c-0.5,0-0.9,0.2-1.3,0.5c-0.2,0.3-0.2,0.7-0.2,1c0,1.1,0.1,2.1,0.2,3.2l0.9,4c0.2,1.8,1.4,3.4,3.2,4
				c1.4,0.4,2.9,0.4,4.3,0c1.5-0.2,3-0.8,4.2-1.7C365,131.4,365.7,129.8,365.7,128.1z"/>
			<path class="st26" d="M343.7,101.1c-0.5-2.6,0.6-5.7,1.5-7.7c0.6-1.4,1.5-2.7,2.6-3.8c6.6-6.4,14.5-2.1,14.5-2.1
				c5.4,1.7,4.5,10.7,4.5,10.7c0,0.5,0,1,0,1.4c0.3-0.1,0.7-0.1,1,0c1.6,0.4,2.5,2.6,2,4.9c-0.5,2.2-2.1,3.6-3.6,3.5
				c-0.9,4-3.3,7.5-6.7,9.7l-0.6,0.4c-0.6,0.3-1.2,0.5-1.8,0.7c-5,1-10-1.9-11.6-6.8C344.5,108.5,343.8,104.8,343.7,101.1z"/>
			<path class="st27" d="M371.3,93.2c-0.3-3-1.9-5.7-4.4-7.4c-2.4-1.5-5.4-1.7-8.3-1.6s-5.8,0.4-8.5-0.3l0.7,1.5
				c-4.4,0.9-8.1,4.1-9.4,8.4c-0.2,1-0.5,1.9-0.9,2.9c-0.4,0.9-1.1,1.7-2.1,2c0.6,0.2,1.2,0.2,1.8,0c-0.7,2.6,0.2,5.5,2.2,7.2
				c0.5,0.4,1,0.8,1.4,1.3s0.5,1.2,0.1,1.8c0.3-0.1,0.5,0.2,0.8,0.1c-0.6-3.8-1-6-1.2-9.1c2.8-1.3,5.2-3.1,7.2-5.3
				c0.2,1.2-0.4,2.4-1.4,3.1c3.5-0.1,6.9-1.5,9.5-3.9c-0.9,1-0.6,2.6,0,3.8s1.7,2.1,2.4,3.3s0.9,2.8,0,3.8c0.8,0,1.5-0.4,1.9-1.1
				c-0.3,0.7-0.3,1.6,0.2,2.3c0.5,0.7,1.2,1,2.1,1c-0.9-2.5,0.4-5.2,2.9-6.1c0.3-0.1,0.5-0.2,0.8-0.2l0.8,1.4
				C371.1,99.2,371.5,96.2,371.3,93.2z"/>
			<path class="st29" d="M348.9,109c0.4-2,0.9-3.9,1.3-5.9c0.1-0.5,0.8-0.3,0.7,0.1l-1.1,4.8c-0.1,0.6-0.6,1.7,0.1,2s1.5,0.3,2.2,0
				c0.5-0.1,0.7,0.6,0.3,0.7C351,111.1,348.5,111,348.9,109z"/>
			<path class="st29" d="M352.3,113c1.8-0.2,3.4-1.3,4.4-2.9c0.1-0.2,0.4-0.2,0.5-0.1l0,0c0.2,0.1,0.2,0.4,0.1,0.5
				c-1.1,1.7-2.9,2.9-4.9,3.2c-0.2,0-0.4-0.2-0.4-0.4C352,113.2,352.1,113,352.3,113z"/>
			<path class="st27" d="M356.9,103.9c0,0.7-0.4,1.4-0.9,1.4s-0.9-0.6-0.9-1.3s0.4-1.4,0.9-1.4S356.9,103.2,356.9,103.9z"/>
			<path class="st27" d="M348.6,104.5c0,0.7-0.4,1.4-0.9,1.4s-0.9-0.6-0.9-1.3s0.4-1.4,0.9-1.4S348.6,103.7,348.6,104.5z"/>
			<path class="st27" d="M358.7,101.4L358.7,101.4h0.1c-0.6-1.3-1.8-2.2-3.3-2.4c-0.2,0-0.5,0-0.7,0.1s-0.3,0.3-0.3,0.5
				c0.1,0.2,0.3,0.4,0.5,0.5c0.5,0.2,1,0.3,1.5,0.3c0.5,0.1,1,0.2,1.5,0.4C358.3,101,358.5,101.2,358.7,101.4z"/>
			<path class="st27" d="M348.3,99.3c-0.2-0.1-0.4-0.1-0.5-0.1c-1.2,0.2-2.1,1.2-2.2,2.4c0.1-0.2,0.2-0.3,0.3-0.5l0,0
				c0.1-0.1,0.2-0.2,0.2-0.2c0.3-0.2,0.7-0.3,1.1-0.4c0.4,0,0.8-0.1,1.2-0.3c0.2-0.1,0.3-0.3,0.3-0.5
				C348.6,99.6,348.5,99.4,348.3,99.3z"/>
			<path class="st30" d="M346.3,214.4h-53.4c-1.2,0-2.2-0.8-2.4-2l-6.7-31.7c-0.3-1.3,0.6-2.7,1.9-2.9c0.2,0,0.3-0.1,0.5-0.1h53.4
				c1.2,0,2.2,0.8,2.4,2l6.7,31.7c0.3,1.3-0.6,2.7-1.9,2.9C346.6,214.4,346.4,214.4,346.3,214.4z"/>
			<path class="st5" d="M310.4,196.9c-0.2,2.6,1.7,5,4.4,5.2c2.6,0.2,5-1.7,5.2-4.4c0.2-2.6-1.7-5-4.4-5.2c-0.1,0-0.3,0-0.4,0
				C312.7,192.4,310.5,194.4,310.4,196.9z"/>
			<rect x="296.4" y="214.4" class="st5" width="50.5" height="3.2"/>
			<rect x="346.9" y="214.4" class="st13" width="26.3" height="3.2"/>
			<polygon class="st31" points="369.8,217.6 373.5,217.6 398.9,339.3 395.3,339.3 			"/>
			<polygon class="st31" points="296.3,217.6 300,217.6 279.8,339.3 276.1,339.3 			"/>
			<path class="st31" d="M287.2,220.4h94.4c1,0,1.8-0.8,1.8-1.8l0,0c0-1-0.8-1.8-1.8-1.8h-94.4c-1,0-1.8,0.8-1.8,1.8l0,0
				C285.4,219.6,286.2,220.4,287.2,220.4z"/>
			<path class="st27" d="M108.9,154.8c-0.9-1.8-1.3-3.9-0.9-5.9c0.2-2,0.7-4,0.7-6c0.1-8.8-8.5-15.9-8.6-24.8
				c-0.1-4.1,1.8-8.1,1.9-12.2c0-1-0.2-1.9-0.5-2.8c-4-12.9-19.8-17.7-30.5-9.6l0,0c-4.8,3.6-7.3,9.4-6.6,15.3
				c0.4,2.9,0.5,5.9,0.4,8.8c-0.3,6.1-2,12.2-6,16.9c-1.3,1.5-2.9,2.9-4,4.5c-1.3,1.6-1.9,3.7-1.5,5.7c0.6,2.6,3.2,4.4,4.2,6.9
				c0.8,2.4,0.3,5-1.3,6.9c-0.2,0.2-0.3,0.4-0.5,0.6c-1.6,1.8-1.4,4.5,0.4,6c0.7,0.6,1.5,1,2.4,1c2,0.2,3.9,0.1,5.9-0.1
				c1.7-0.2,3.4-0.4,5.1-0.5c4.1-0.1,8.1,1.1,12.1,1.6c2.1,0.3,4.3,0.4,6.5,0.1c2.1-0.4,3.7-2.2,3.6-4.4l0,0
				c5.5,2.2,11.6,1.9,16.8-1c2.1-1.1,2.8-3.7,1.7-5.8c-0.1-0.3-0.3-0.5-0.5-0.7C109.3,155.2,109.1,155,108.9,154.8z"/>
			<path class="st27" d="M67.1,328.9c-2.9,0.8-4.2,0.7-7.1,1.4c-0.3,0.7-2.3,6.4,1.6,6.5l18.6,0.3c0.7,0,1.4-0.2,1.7-0.8
				C83.3,333,71.2,329.9,67.1,328.9z"/>
			<path class="st27" d="M98.1,328.9c-3.1-0.4-4.2,0.7-7.1,1.4c-0.3,0.7-2.3,6.4,1.7,6.5l18.6,0.3c0.7,0,1.4-0.2,1.7-0.8
				C114.3,333,102.2,329.9,98.1,328.9z"/>
			<path class="st24" d="M151.6,144.4l-6.6,1.1l0.3,1.1c6.3-0.3,3.7,1.4,3.7,1.4l-7.2,0.1c-5.5,3-9.1,1.6-9.1,1.6l-20,19.5
				c-3.2,2.6-7.9,2.2-10.6-1c-0.2-0.3-0.4-0.6-0.6-0.8l-3.8-6.2l-0.8-1.3l-10.8-17.6c-2-3.2-1.8-7.4,0.4-10.4c0.8-1.1,2-1.9,3.4-2.2
				l0,0c2.4,0,4.8,0.8,6,2.3l0.2,0.3l10.6,17.8l0,0l1.2,1.9l2.5,4.2c4.7-2.5,20.2-11.2,20.2-11.2l0.4-3c0.2-1.4,0.9-2.7,1.8-3.8
				c1.4-1.5,2.4-3.3,2.9-5.4c2.4,1.2-0.5,5.5-0.5,5.5l1.1,1.9l4.2-1.3c9.3-7.1,8.5-3.4,8.5-3.4l-6.4,4.5l0.7,1.2
				c8.6-5.6,7.6-2.3,7.6-2.3l-7,3.8l0.4,1.4C153.8,141.7,151.6,144.4,151.6,144.4z"/>
			<path class="st5" d="M107.9,152c-2.7,2.6-5.4,5.3-8.3,7.7c-0.6,0.5-1.2,1-1.9,1.4l-0.8-1.4l-10.8-17.6c-2-3.2-4.8-7.1-2.6-10.1
				c1.2-1.6,3.8-2.5,6.4-2.5l0,0c2.4,0,4.8,0.8,6,2.3l0.2,0.3l10.6,17.8l0,0L107.9,152z"/>
			
				<pattern  id="SVGID_00000058553296143003390260000018070469990669211564_" xlink:href="#SVGID_0000012632412737045809015" patternTransform="matrix(1 0 0 1 -0.52 16402.0898)">
			</pattern>
			<path style="fill:url(#SVGID_00000058553296143003390260000018070469990669211564_);" d="M107.9,152c-2.7,2.6-5.4,5.3-8.3,7.7
				c-0.6,0.5-1.2,1-1.9,1.4l-0.8-1.4l-10.8-17.6c-2-3.2-4.8-7.1-2.6-10.1c1.2-1.6,3.8-2.5,6.4-2.5l0,0c2.4,0,4.8,0.8,6,2.3l0.2,0.3
				l10.6,17.8l0,0L107.9,152z"/>
			<path class="st18" d="M60,330.3c0,0,7-1.1,7.1-1.4l12.3-40c2.1-6.9,3.6-13.9,4.7-21c0.1-0.4,0.1-0.7,0.2-1.1s0.1-1,0.2-1.5
				l1.6-12.3c0.6-4.8,2.7-29.5,3.4-34.2c-1.3,8.8,5.6,55.7,5.6,55.7s-8,17.5-4,55.9l7.1-1.4l7.1-41.4c1.1-6.5,1.8-13.1,2.1-19.6
				c0-1,0.1-2,0.1-3c0-0.5,0-1,0-1.5l0.1-10.1l0.2-19.6c0.4-5.8,0.5-11.7,0.6-17.6c0-1.8,0-3.6,0-5.4c0-0.6,0-1.2,0-1.8v-0.4
				l-1-18.5l-0.2-3.6l0,0H107l-15.9-1.6l-6.5-0.6c-0.5-0.1-1,0-1.5,0.3c-0.8-0.1-1.7,0.2-2.3,0.7c-0.4,0.4-0.8,0.7-1.2,1.2
				c-1.3,1.4-2.4,3-3.2,4.8l-2.1,4.4c-3.8,7.9-5.6,16.6-5.5,25.4c0.1,9.3,2.6,53.4,2.2,53.7C62,281.5,60.4,317,60,330.3z"/>
			<path class="st5" d="M107,185.1c0,0.1,0,0.3,0,0.5c-0.9,0.3-1.8,0.5-2.8,0.8c-6.6,1.6-13.4,2.2-20.1,1.8
				c-2.7-0.1-5.4-0.4-8.1-0.8c0.4-0.7,0.9-1.5,1.4-2.2s1-1.4,1.5-2.1c0.7-0.9,1.3-1.8,2.1-2.7c0.2-0.2,0.3-0.5,0.5-0.8
				s0.2-0.7,0.2-1.1c-0.1-3.7-0.7-7.3-1.9-10.8c-0.4-1.3-0.9-2.6-1.3-3.9c-2-5.3-4.4-10.5-5.7-16c-0.2-0.8-0.5-1.9-0.8-3.2
				c-1-4-2-9.5,0.5-11.5c0.2-0.1,0.4-0.3,0.5-0.4c0.3-0.2,0.7-0.4,1-0.5c0.1,0,0.2-0.1,0.3-0.1c0.4-0.2,1.1-0.4,1.6-0.5H76l0.3-0.1
				c0.1,0,0.2-0.1,0.3-0.1c0.3-0.1,0.7-0.2,1-0.3l0.8-0.2c0.2,0,0.3-0.1,0.4-0.1c0.2-0.1,0.4-0.1,0.6-0.2l0,0l0.1-0.1h0.1h0.1
				c0.1,0,0.1-0.1,0.2-0.1H80l0.2-0.1h0.1h0.2l0.8-0.1l0,0h0.2c0.4,0,3.6-0.5,4-0.5c1-0.2,2.1-0.2,3.1,0.2l0.2,0.1
				c0,0,0.1,0,0.1,0.1c0.2,0.1,0.4,0.2,0.6,0.4l0.3,0.2l0,0c2,1.5,4,3.1,6.1,4.6c1,0.7,1.9,1.5,2.9,2.3s1.6,1.3,2.5,1.9
				c0,0,0,0,0.1,0.1c3.3,2.6,7.1,4.9,7.3,9.5c0.1,2.8-1.3,4.9-3.5,6.8c0,0.6,0,1.2,0.1,1.8c0,0.1,0,0.3,0,0.4
				c0.1,0.9,0.1,1.7,0.1,2.6c0.2,5.3,0.6,10.7,1,16c0,0.5,0.1,1.1,0.1,1.6c0.1,0.9,0.1,1.8,0.2,2.8c0,0.7,0.1,1.4,0.1,2.1
				c0,0.3,0,0.6,0.1,0.9c0,0.2,0,0.5,0,0.7S107,185,107,185.1z"/>
			
				<pattern  id="SVGID_00000134932197356485317410000008325438389317884607_" xlink:href="#SVGID_0000016879591961344620410" patternTransform="matrix(1 0 0 1 -0.52 16402.0898)">
			</pattern>
			<path style="fill:url(#SVGID_00000134932197356485317410000008325438389317884607_);" d="M107,185.1c0,0.1,0,0.3,0,0.5
				c-0.9,0.3-1.8,0.5-2.8,0.8c-6.6,1.6-13.4,2.2-20.1,1.8c-2.7-0.1-5.4-0.4-8.1-0.8c0.4-0.7,0.9-1.5,1.4-2.2s1-1.4,1.5-2.1
				c0.7-0.9,1.3-1.8,2.1-2.7c0.2-0.2,0.3-0.5,0.5-0.8s0.2-0.7,0.2-1.1c-0.1-3.7-0.7-7.3-1.9-10.8c-0.4-1.3-0.9-2.6-1.3-3.9
				c-2-5.3-4.4-10.5-5.7-16c-0.2-0.8-0.5-1.9-0.8-3.2c-1-4-2-9.5,0.5-11.5c0.2-0.1,0.4-0.3,0.5-0.4c0.3-0.2,0.7-0.4,1-0.5
				c0.1,0,0.2-0.1,0.3-0.1c0.4-0.2,0.9-0.3,1.3-0.5l0.2-0.1H76l0.3-0.1c0.1,0,0.2-0.1,0.3-0.1c0.3-0.1,0.7-0.2,1-0.3l0.8-0.2
				l0.4-0.1c0.2-0.1,0.4-0.1,0.6-0.2l0,0l0.1-0.1h0.1h0.1l0.2-0.1H80l0.2-0.1h0.1h0.2l0.8-0.1l0,0h0.2c0.4,0,3.6-0.5,4-0.5
				c1-0.2,2.1-0.2,3.1,0.2l0.2,0.1c0,0,0.1,0,0.1,0.1c0.2,0.1,0.4,0.2,0.6,0.4l0.3,0.2l0,0c2,1.5,4,3.1,6.1,4.6
				c1,0.7,1.9,1.5,2.9,2.3s1.6,1.3,2.5,1.9c0,0,0,0,0.1,0.1c3.3,2.6,7.1,4.9,7.3,9.5c0.1,2.8-1.3,4.9-3.5,6.8c0,0.6,0,1.2,0.1,1.8
				c0,0.1,0,0.3,0,0.4c0.1,0.9,0.1,1.7,0.1,2.6c0.2,5.3,0.6,10.7,1,16c0,0.5,0.1,1.1,0.1,1.6c0.1,0.9,0.1,1.8,0.2,2.8
				c0,0.7,0.1,1.4,0.1,2.1c0,0.3,0,0.6,0.1,0.9c0,0.2,0,0.5,0,0.7S107,185,107,185.1z"/>
			<path class="st26" d="M96,145.3c-7.4-1.5-19.5-13.9-19.3-13.9c0.3-0.1,0.7-0.2,1-0.3c0.6-0.1,1.2-0.3,1.8-0.6l0,0
				c0.3-0.2,0.2-0.2,1.8-0.4l0,0h0.2c0.4,0,3.6-0.5,4-0.5c1-0.2,2.1-0.2,3.1,0.2c0.1,0,0.2,0.1,0.3,0.2c0.2,0.1,0.4,0.2,0.6,0.4
				l0.3,0.2l0,0C91.1,137.4,96,145.3,96,145.3z"/>
			<path class="st26" d="M88.6,130.2C88.6,130.2,88.6,130.3,88.6,130.2c0,0.2,0,0.4,0,0.7c0,1.9-1,3.6-2.6,4.6
				c-1.2,0.8-2.7,0.9-4,0.5c-2.5-0.8-4.2-3.1-4.2-5.7v-2l-0.7-11.1l10.6-0.3l0.2,2.1l0.5,6.8L88.6,130.2z"/>
			<path class="st34" d="M88.6,130.2C88.6,130.2,88.6,130.3,88.6,130.2c-10.7-0.1-10-12.8-10-12.8l9.2,1.7l0.5,6.8L88.6,130.2z"/>
			<path class="st35" d="M63.5,152.7L138,121c2.3-1,4.9,0.1,5.8,2.4l12.6,29.6c1,2.3-0.1,4.9-2.3,5.8l0,0l-74.5,31.7
				c-2.3,1-4.9-0.1-5.8-2.4l-12.6-29.5C60.2,156.3,61.2,153.7,63.5,152.7z"/>
			<path class="st5" d="M110.2,146.4l-38.3,16.3c-1.4,0.6-3.1-0.1-3.7-1.5l0,0l0,0c-0.6-1.4,0-3.1,1.5-3.7l0,0l38.4-16.3
				c1.4-0.6,3.1,0,3.7,1.5l0,0l0,0C112.3,144.2,111.6,145.8,110.2,146.4L110.2,146.4z"/>
			<path class="st5" d="M142.7,141.4l-68.2,28.9c-0.5,0.2-1.1,0-1.3-0.5l0,0c-0.2-0.5,0-1,0.5-1.3l68.2-28.9c0.5-0.2,1,0,1.3,0.5
				l0,0C143.4,140.6,143.1,141.1,142.7,141.4z"/>
			<path class="st5" d="M139.4,149l-62.7,26.6c-0.5,0.2-1,0-1.3-0.5l0,0c-0.2-0.5,0-1,0.5-1.3l62.7-26.6c0.5-0.2,1,0,1.3,0.5l0,0
				C140.2,148.2,139.9,148.8,139.4,149z"/>
			<path class="st5" d="M136,156.4l-56.9,24.1c-0.5,0.2-1,0-1.3-0.5l0,0c-0.2-0.5,0-1,0.5-1.3l56.9-24.1c0.5-0.2,1,0,1.3,0.5l0,0
				C136.6,155.6,136.4,156.1,136,156.4z"/>
			<path class="st26" d="M84.3,169.9l23.8,4.3l0,0c1.8-2.3,4.4-3.9,7.3-4.4l4.6-0.9c0.4-0.1,0.8,0.2,0.9,0.5c0,0.2,0,0.3,0,0.5
				c-0.5,1.1-1.8,2.6-6,3.3l12-2.8l-2.1,5.4c-0.6,1-1.5,1.7-2.6,2l-0.6,0.2l-1.2,1.7c-0.8,1.2-2.1,1.9-3.6,2l-2.1,0.2
				c-2.1,0.2-4.3-0.4-6.1-1.6l0,0l-24.8-0.4c0,0-7.7,0.8-8.2-4.6l-8.3-33.4c-0.8-3.1,0.4-6.4,3.1-8.1l0,0c3.4-2.2,7.9-1.2,10.1,2.2
				c0.5,0.8,0.9,1.7,1,2.7L84.3,169.9z"/>
			<path class="st5" d="M79.5,161.2c1.3-0.4,2.6-0.9,3.9-1.4l-1.9-21.1c-0.1-3.9-4.8-7.3-4.8-7.3c-2.2,0.6-4.3,1.4-6.3,2.4l0,0
				c-2.7,1.7-4,5-3.1,8.1l2.4,20.9C73,162.6,76.3,162.1,79.5,161.2z"/>
			
				<pattern  id="SVGID_00000142886066659614439840000003185369298348954768_" xlink:href="#SVGID_0000013423832053906843223" patternTransform="matrix(1 0 0 1 -0.52 16402.0898)">
			</pattern>
			<path style="fill:url(#SVGID_00000142886066659614439840000003185369298348954768_);" d="M79.5,161.2c1.3-0.4,2.6-0.9,3.9-1.4
				l-1.9-21.1c-0.1-3.9-4.8-7.3-4.8-7.3c-2.2,0.6-4.3,1.4-6.3,2.4l0,0c-2.7,1.7-4,5-3.1,8.1l2.4,20.9
				C73,162.6,76.3,162.1,79.5,161.2z"/>
			<path class="st26" d="M95.6,111.6c-0.2-1.6-0.4-3.2-0.5-4.9c-0.1-2.3-1.5-4.7-2.9-6.7c-3.3-5-9.7-6.8-15.2-4.4
				c-5.2,2.2-5.7,7.5-4.3,12.2c-3.3-1.7-3.5,2.6-3.5,2.6c-0.2,4.3,4,4.2,4,4.2c0.8,2.5,2.1,4.7,4,6.6c2,1.9,4.3,3.4,6.8,4.4
				c3.8,1.4,8-0.1,10.1-3.5c1.6-2.7,2.2-5.9,1.7-9.1C95.8,112.6,95.7,112.1,95.6,111.6z"/>
			<path class="st29" d="M90.8,115.8c-0.2-0.3-0.4-0.6-0.6-0.9c-0.3-0.3-0.5-0.6-0.7-1c-0.4-0.7-0.6-1.5-0.8-2.3
				c0-0.2-0.3-0.4-0.5-0.3s-0.3,0.3-0.3,0.5c0.2,1.3,0.8,2.6,1.6,3.6c0.3,0.4,0.8,0.8,0.4,1.3s-1.2,0.4-1.8,0.4s-0.5,0.8,0,0.8
				c0.8,0.1,1.6,0,2.2-0.4C90.9,117.1,91.1,116.4,90.8,115.8z"/>
			<path class="st27" d="M82.7,112.4c0.1,0.7,0.7,1.3,1.2,1.2s0.8-0.7,0.7-1.4s-0.7-1.3-1.2-1.2S82.6,111.6,82.7,112.4z"/>
			<path class="st27" d="M90.6,111.9c0.1,0.7,0.7,1.3,1.2,1.2s0.8-0.7,0.7-1.4s-0.7-1.3-1.2-1.2S90.5,111.2,90.6,111.9z"/>
			<path class="st27" d="M90.6,106.6c0.2-0.1,0.3-0.1,0.5-0.1c1.2,0.2,2.1,1.1,2.2,2.2c-0.1-0.2-0.2-0.3-0.3-0.4l0,0
				c-0.1-0.1-0.1-0.1-0.2-0.2c-0.3-0.2-0.7-0.3-1.1-0.3s-0.8-0.1-1.1-0.2c-0.2-0.1-0.3-0.2-0.3-0.4
				C90.3,106.9,90.4,106.7,90.6,106.6z"/>
			<path class="st27" d="M83.8,106.7c-0.2-0.1-0.3-0.1-0.5-0.2c-1.2,0-2.1,0.9-2.2,2c0.1-0.2,0.2-0.3,0.3-0.4l0,0
				c0.1-0.1,0.2-0.1,0.2-0.2c0.3-0.1,0.7-0.2,1.1-0.2s0.7,0,1.1-0.1c0.2,0,0.3-0.2,0.3-0.4C84.1,107.1,83.9,106.8,83.8,106.7z"/>
			<path class="st29" d="M83.1,118c1.3,1.3,3.2,1.9,5,1.6c0.5-0.1,0.7,0.7,0.2,0.8c-2.1,0.4-4.2-0.4-5.7-1.9
				C82.1,118.2,82.7,117.7,83.1,118z"/>
			<path class="st27" d="M88.1,95.5c0,0,5.6,8.6-10.6,11.3c0,0-4.5,3,1.1,12c0,0-8.9-2.6-8.9-14.6l2.7-7l10-5.1l11.8,4.6
				c0,0,3.1,13.4,3,13.3C91.2,103.2,87,98.4,88.1,95.5z"/>
			
				<rect x="63.4" y="106.8" transform="matrix(0.3867 -0.9222 0.9222 0.3867 -56.6791 131.565)" class="st37" width="14.3" height="3.1"/>
			<path class="st24" d="M70.7,111.2c-0.3-0.9-0.3-1.9-0.1-2.8c0.1-0.3,0.2-0.6,0.4-0.9c-1.8,0.2-1.9,3-1.9,3
				c-0.2,2,1.1,3.8,3.1,4.1C71.5,113.5,71,112.4,70.7,111.2z"/>
			<polygon class="st24" points="71.9,101.2 74.7,102.4 74.6,98.6 			"/>
			<path class="st24" d="M66.8,117.3L66.8,117.3c-0.8-0.3-1.2-1.2-0.8-2l0,0l0.4-0.9l2.8,1.2l-0.4,0.9
				C68.5,117.2,67.6,117.6,66.8,117.3z"/>
			<path class="st27" d="M73.4,105.5c-0.1,0.5-0.5,0.9-0.9,1.2c-0.5,0.2-0.9,0.5-1.3,0.8c-0.9,0.9-1.2,2.2-0.7,3.4
				c0.5,1.1,1.2,2.1,2.2,2.9c0.3,0.3,0.7,0.6,1,0.4c0.2-0.2,0.3-0.5,0.3-0.8l0.2-5"/>
			<circle class="st4" cx="279.1" cy="23.9" r="11.6"/>
			<path class="st5" d="M284.5,20.4h-10.7c-0.6,0-1.2-0.5-1.2-1.2l0,0c0-0.6,0.5-1.2,1.2-1.2l0,0h10.7c0.6,0,1.2,0.5,1.2,1.2l0,0
				l0,0C285.7,19.9,285.2,20.4,284.5,20.4L284.5,20.4z"/>
			<path class="st5" d="M284.5,25h-10.7c-0.6,0-1.2-0.5-1.2-1.2l0,0c0-0.7,0.5-1.2,1.2-1.2h10.7c0.6,0,1.2,0.5,1.2,1.2l0,0l0,0
				C285.7,24.5,285.2,25,284.5,25L284.5,25z"/>
			<path class="st5" d="M284.5,29.6h-10.7c-0.6,0-1.2-0.5-1.2-1.2l0,0l0,0c0-0.6,0.5-1.2,1.2-1.2h10.7c0.6,0,1.2,0.5,1.2,1.2l0,0
				l0,0C285.7,29.1,285.2,29.6,284.5,29.6L284.5,29.6z"/>
		</g>
	</g>
</g>
</svg>
