<svg xmlns="http://www.w3.org/2000/svg" xmlns:xlink="http://www.w3.org/1999/xlink" viewBox="0 0 388.76 124.91"><defs><style>.cls-1{fill:#edf1ff;}.cls-2{fill:url(#Gradiente_sem_nome_17);}.cls-3{fill:url(#Gradiente_sem_nome_17-2);}.cls-4{fill:url(#Gradiente_sem_nome_21);}</style><radialGradient id="Gradiente_sem_nome_17" cx="60.37" cy="62.45" r="61.42" gradientUnits="userSpaceOnUse"><stop offset="0" stop-color="#fff"/><stop offset="1"/></radialGradient><radialGradient id="Gradiente_sem_nome_17-2" cx="112.4" cy="77.43" r="21.24" xlink:href="#Gradiente_sem_nome_17"/><linearGradient id="Gradiente_sem_nome_21" y1="62.45" x2="121.26" y2="62.45" gradientUnits="userSpaceOnUse"><stop offset="0" stop-color="#54b2dd"/><stop offset="0.76" stop-color="#1074de"/></linearGradient></defs><g id="Camada_2" data-name="Camada 2"><g id="Camada_1-2" data-name="Camada 1"><path class="cls-1" d="M165.33,37.87h-20V28.16h50.25v9.71H175.68v69.34H165.33Z"/><path class="cls-1" d="M210.19,50.27h6.36v9.06h-5.5c-6,0-8.52,2.26-8.52,8.73v39.15h-9.92v-39C192.61,55.88,198.43,50.27,210.19,50.27Z"/><path class="cls-1" d="M243.18,108.5c-14,0-22.43-9-22.43-24V50.27h9.93V84.13c0,9.71,4.42,15,12.5,15s12.62-5.28,12.62-15V50.27h9.92V84.45C265.72,99.55,257.42,108.5,243.18,108.5Z"/><path class="cls-1" d="M273.27,107.21V98.47a93.42,93.42,0,0,0,10.67.76c7.34,0,10.79-2.37,10.79-7.23,0-3.56-2.05-6.14-7.34-9.59l-3.77-2.48c-7.44-4.86-10.78-9.49-10.78-15.64,0-9.06,7-14.67,18.65-14.67a67.11,67.11,0,0,1,8.74.65v8c-3.24-.32-5.72-.43-7.34-.43-6.79,0-10.35,2.26-10.35,6.36,0,3,2.16,5.39,7.44,8.84l3.78,2.48c7.76,5.07,11.1,9.82,11.1,16.39,0,10-7.54,16-20.48,16C281.57,107.85,277.47,107.64,273.27,107.21Z"/><path class="cls-1" d="M313.71,59.33H306.8V50.27h6.91V34.53l9.92-3.67V50.27H331v9.06h-7.33v47.88h-9.92Z"/><path class="cls-1" d="M333.11,79c0-17,12.08-29.77,28.58-29.77,14.45,0,27.39,9.82,27.07,30.84H342.39c.54,11.22,8.3,19.52,20.05,19.52a22,22,0,0,0,19.31-11l6.9,5.07c-5,7.76-13.59,14.67-26.31,14.67C344.87,108.29,333.11,95.67,333.11,79Zm45.94-6.37c-1.83-10.13-8.95-15-17.47-15-9.6,0-16.6,6.37-18.65,15Z"/><path class="cls-2" d="M81.36,65.46l-18.51,8.2a1,1,0,0,1-1.41-.91V52.65a1,1,0,0,1,.61-.91l58.68-25.32a4,4,0,0,0-1.88-1.71L62.21.33a4,4,0,0,0-3.16,0L2.42,24.71A4,4,0,0,0,0,28.39V95.94A4,4,0,0,0,2.39,99.6l56.63,25a4,4,0,0,0,3.23,0L83,115.43l-.19-49.06A1,1,0,0,0,81.36,65.46Z"/><path class="cls-3" d="M103.55,56.86l.51,49.27,14.82-6.53a4,4,0,0,0,2.38-3.66V48.74l-17.1,7.19A1,1,0,0,0,103.55,56.86Z"/><path class="cls-4" d="M81.36,65.46l-18.51,8.2a1,1,0,0,1-1.41-.91V52.65a1,1,0,0,1,.61-.91l58.68-25.32a4,4,0,0,0-1.88-1.71L62.21.33a4,4,0,0,0-3.16,0L2.42,24.71A4,4,0,0,0,0,28.39V95.94A4,4,0,0,0,2.39,99.6l56.63,25a4,4,0,0,0,3.23,0L83,115.43l-.19-49.06A1,1,0,0,0,81.36,65.46Z"/><path class="cls-4" d="M103.55,56.86l.51,49.27,14.82-6.53a4,4,0,0,0,2.38-3.66V48.74l-17.1,7.19A1,1,0,0,0,103.55,56.86Z"/></g></g></svg>